<?xml version="1.0" encoding="UTF-8"?>
<!DOCTYPE svg PUBLIC "-//W3C//DTD SVG 1.1//EN" "http://www.w3.org/Graphics/SVG/1.1/DTD/svg11.dtd">
<svg xmlns="http://www.w3.org/2000/svg" version="1.1" width="1248px" height="516px" style="shape-rendering:geometricPrecision; text-rendering:geometricPrecision; image-rendering:optimizeQuality; fill-rule:evenodd; clip-rule:evenodd" xmlns:xlink="http://www.w3.org/1999/xlink">
<g><path style="opacity:1" fill="#fefefe" d="M -0.5,-0.5 C 323.167,-0.5 646.833,-0.5 970.5,-0.5C 969.909,0.151487 969.243,0.818153 968.5,1.5C 950.004,2.16667 931.671,2.83334 913.5,3.5C 913.5,4.16667 913.5,4.83333 913.5,5.5C 913.5,10.1667 913.5,14.8333 913.5,19.5C 913.5,41.8333 913.5,64.1667 913.5,86.5C 913.5,88.5 913.5,90.5 913.5,92.5C 912.758,94.5943 912.091,96.761 911.5,99C 912.805,102.395 913.471,105.895 913.5,109.5C 916.5,109.5 919.5,109.5 922.5,109.5C 922.24,117.567 925.906,122.901 933.5,125.5C 926.352,126.492 919.019,126.825 911.5,126.5C 911.5,128.833 911.5,131.167 911.5,133.5C 912.5,133.5 913.5,133.5 914.5,133.5C 914.5,132.5 914.5,131.5 914.5,130.5C 921.5,130.5 928.5,130.5 935.5,130.5C 935.263,131.791 935.596,132.791 936.5,133.5C 942.167,133.5 947.833,133.5 953.5,133.5C 954.404,132.791 954.737,131.791 954.5,130.5C 961.5,130.5 968.5,130.5 975.5,130.5C 975.5,131.5 975.5,132.5 975.5,133.5C 981.833,133.5 988.167,133.5 994.5,133.5C 994.5,132.5 994.5,131.5 994.5,130.5C 1001.17,130.5 1007.83,130.5 1014.5,130.5C 1014.26,131.791 1014.6,132.791 1015.5,133.5C 1021.5,133.5 1027.5,133.5 1033.5,133.5C 1033.5,132.5 1033.5,131.5 1033.5,130.5C 1036.17,130.5 1038.83,130.5 1041.5,130.5C 1041.5,129.167 1041.5,127.833 1041.5,126.5C 1035.64,126.822 1029.98,126.489 1024.5,125.5C 1031.87,122.761 1035.21,117.428 1034.5,109.5C 1037.83,109.5 1041.17,109.5 1044.5,109.5C 1044.44,100.698 1040.77,94.0318 1033.5,89.5C 1033.17,88.5 1032.5,87.8333 1031.5,87.5C 1033.18,83.412 1033.85,79.0787 1033.5,74.5C 1034.17,74.5 1034.5,74.1667 1034.5,73.5C 1038.17,73.8174 1039.84,72.1507 1039.5,68.5C 1040.65,68.2089 1041.32,67.3756 1041.5,66C 1041.32,64.6244 1040.65,63.7911 1039.5,63.5C 1039.76,61.0107 1038.76,59.344 1036.5,58.5C 1035.79,57.596 1034.79,57.2627 1033.5,57.5C 1033.5,54.8333 1033.5,52.1667 1033.5,49.5C 1033.24,47.2239 1031.91,46.0572 1029.5,46C 1018.84,45.5002 1008.17,45.3335 997.5,45.5C 997.5,44.1667 997.5,42.8333 997.5,41.5C 997.5,38.8333 997.5,36.1667 997.5,33.5C 998.461,31.7354 998.795,29.7354 998.5,27.5C 999.5,27.5 1000.5,27.5 1001.5,27.5C 1001.5,26.1667 1001.5,24.8333 1001.5,23.5C 994.5,23.5 987.5,23.5 980.5,23.5C 980.167,26.5 981.5,27.8333 984.5,27.5C 984.447,33.1956 984.78,38.8623 985.5,44.5C 979.021,45.4907 972.354,45.824 965.5,45.5C 965.5,36.8333 965.5,28.1667 965.5,19.5C 967.153,19.3404 968.486,18.6737 969.5,17.5C 970.166,12.9834 970.833,8.3167 971.5,3.5C 972.192,4.02527 972.692,4.69194 973,5.5C 973.18,3.51162 973.014,1.51162 972.5,-0.5C 1064.17,-0.5 1155.83,-0.5 1247.5,-0.5C 1247.5,171.5 1247.5,343.5 1247.5,515.5C 831.5,515.5 415.5,515.5 -0.5,515.5C -0.5,343.5 -0.5,171.5 -0.5,-0.5 Z"/></g>
<g><path style="opacity:1" fill="#fef9e0" d="M 970.5,-0.5 C 971.167,-0.5 971.833,-0.5 972.5,-0.5C 973.014,1.51162 973.18,3.51162 973,5.5C 972.692,4.69194 972.192,4.02527 971.5,3.5C 970.833,8.3167 970.166,12.9834 969.5,17.5C 969.817,13.2984 969.483,9.29841 968.5,5.5C 968.389,4.88258 968.056,4.38258 967.5,4C 949.503,3.50006 931.503,3.33339 913.5,3.5C 931.671,2.83334 950.004,2.16667 968.5,1.5C 969.243,0.818153 969.909,0.151487 970.5,-0.5 Z"/></g>
<g><path style="opacity:1" fill="#fbbd34" d="M 913.5,3.5 C 931.503,3.33339 949.503,3.50006 967.5,4C 968.056,4.38258 968.389,4.88258 968.5,5.5C 950.167,5.5 931.833,5.5 913.5,5.5C 913.5,4.83333 913.5,4.16667 913.5,3.5 Z"/></g>
<g><path style="opacity:1" fill="#f58510" d="M 913.5,5.5 C 931.833,5.5 950.167,5.5 968.5,5.5C 969.483,9.29841 969.817,13.2984 969.5,17.5C 968.486,18.6737 967.153,19.3404 965.5,19.5C 948.167,19.5 930.833,19.5 913.5,19.5C 913.5,14.8333 913.5,10.1667 913.5,5.5 Z"/></g>
<g><path style="opacity:1" fill="#066939" d="M 1152.5,56.5 C 1151.51,47.6822 1151.17,38.6822 1151.5,29.5C 1133.5,29.5 1115.5,29.5 1097.5,29.5C 1097.5,51.5 1097.5,73.5 1097.5,95.5C 1097.17,95.5 1096.83,95.5 1096.5,95.5C 1096.5,73.5 1096.5,51.5 1096.5,29.5C 1094.83,29.5 1093.17,29.5 1091.5,29.5C 1091.5,25.5 1091.5,21.5 1091.5,17.5C 1113.5,17.5 1135.5,17.5 1157.5,17.5C 1157.5,21.5 1157.5,25.5 1157.5,29.5C 1155.83,29.5 1154.17,29.5 1152.5,29.5C 1152.5,38.5 1152.5,47.5 1152.5,56.5 Z"/></g>
<g><path style="opacity:1" fill="#6e5944" d="M 997.5,33.5 C 997.5,31.5 997.5,29.5 997.5,27.5C 992.857,27.3927 988.524,27.3927 984.5,27.5C 981.5,27.8333 980.167,26.5 980.5,23.5C 987.5,23.5 994.5,23.5 1001.5,23.5C 1001.5,24.8333 1001.5,26.1667 1001.5,27.5C 1000.5,27.5 999.5,27.5 998.5,27.5C 998.795,29.7354 998.461,31.7354 997.5,33.5 Z"/></g>
<g><path style="opacity:1" fill="#043e21" d="M 1195.5,56.5 C 1190.17,56.5 1184.83,56.5 1179.5,56.5C 1179.5,51.5 1179.5,46.5 1179.5,41.5C 1177.83,41.5 1176.17,41.5 1174.5,41.5C 1174.5,37.5 1174.5,33.5 1174.5,29.5C 1183.17,29.5 1191.83,29.5 1200.5,29.5C 1200.5,33.5 1200.5,37.5 1200.5,41.5C 1198.83,41.5 1197.17,41.5 1195.5,41.5C 1195.5,46.5 1195.5,51.5 1195.5,56.5 Z"/></g>
<g><path style="opacity:1" fill="#029145" d="M 1152.5,56.5 C 1152.5,69.5 1152.5,82.5 1152.5,95.5C 1150.17,95.5 1147.83,95.5 1145.5,95.5C 1144.5,95.5 1143.5,95.5 1142.5,95.5C 1142.5,94.1667 1142.5,92.8333 1142.5,91.5C 1141.17,91.5 1139.83,91.5 1138.5,91.5C 1138.5,90.1667 1138.5,88.8333 1138.5,87.5C 1135.5,87.5 1132.5,87.5 1129.5,87.5C 1129.5,86.1667 1129.5,84.8333 1129.5,83.5C 1126.5,83.5 1123.5,83.5 1120.5,83.5C 1120.5,84.8333 1120.5,86.1667 1120.5,87.5C 1117.17,87.5 1113.83,87.5 1110.5,87.5C 1110.5,88.8333 1110.5,90.1667 1110.5,91.5C 1109.5,91.5 1108.5,91.5 1107.5,91.5C 1107.5,92.8333 1107.5,94.1667 1107.5,95.5C 1106.5,95.5 1105.5,95.5 1104.5,95.5C 1102.17,95.5 1099.83,95.5 1097.5,95.5C 1097.5,73.5 1097.5,51.5 1097.5,29.5C 1115.5,29.5 1133.5,29.5 1151.5,29.5C 1151.17,38.6822 1151.51,47.6822 1152.5,56.5 Z"/></g>
<g><path style="opacity:1" fill="#2e261b" d="M 997.5,33.5 C 997.5,36.1667 997.5,38.8333 997.5,41.5C 996.751,42.531 996.085,43.6976 995.5,45C 992.076,45.7466 988.743,45.58 985.5,44.5C 984.78,38.8623 984.447,33.1956 984.5,27.5C 988.524,27.3927 992.857,27.3927 997.5,27.5C 997.5,29.5 997.5,31.5 997.5,33.5 Z"/></g>
<g><path style="opacity:1" fill="#036738" d="M 1141.5,31.5 C 1143.47,39.4329 1144.14,47.7663 1143.5,56.5C 1130.83,56.5 1118.17,56.5 1105.5,56.5C 1105.5,48.8333 1105.5,41.1667 1105.5,33.5C 1117.88,34.1458 1129.88,33.4791 1141.5,31.5 Z"/></g>
<g><path style="opacity:1" fill="#494640" d="M 997.5,41.5 C 997.5,42.8333 997.5,44.1667 997.5,45.5C 1008.17,45.3335 1018.84,45.5002 1029.5,46C 1031.91,46.0572 1033.24,47.2239 1033.5,49.5C 1011.79,49.5506 989.454,49.5506 966.5,49.5C 966.5,61.8333 966.5,74.1667 966.5,86.5C 966.167,86.5 965.833,86.5 965.5,86.5C 965.5,72.8333 965.5,59.1667 965.5,45.5C 972.354,45.824 979.021,45.4907 985.5,44.5C 988.743,45.58 992.076,45.7466 995.5,45C 996.085,43.6976 996.751,42.531 997.5,41.5 Z"/></g>
<g><path style="opacity:1" fill="#98e6e4" d="M 1110.5,37.5 C 1119.83,37.5 1129.17,37.5 1138.5,37.5C 1138.5,42.5 1138.5,47.5 1138.5,52.5C 1129.17,52.5 1119.83,52.5 1110.5,52.5C 1110.5,47.5 1110.5,42.5 1110.5,37.5 Z"/></g>
<g><path style="opacity:1" fill="#9dddf3" d="M 1111.5,38.5 C 1120.17,38.5 1128.83,38.5 1137.5,38.5C 1137.82,42.5546 1137.49,46.5546 1136.5,50.5C 1128.22,51.4699 1119.89,51.8032 1111.5,51.5C 1111.5,47.1667 1111.5,42.8333 1111.5,38.5 Z"/></g>
<g><path style="opacity:1" fill="#30261b" d="M 1033.5,49.5 C 1033.5,52.1667 1033.5,54.8333 1033.5,57.5C 1033.5,63.1667 1033.5,68.8333 1033.5,74.5C 1033.85,79.0787 1033.18,83.412 1031.5,87.5C 1009.91,86.5116 988.242,86.1783 966.5,86.5C 966.5,74.1667 966.5,61.8333 966.5,49.5C 989.454,49.5506 1011.79,49.5506 1033.5,49.5 Z"/></g>
<g><path style="opacity:1" fill="#0c6b88" d="M 913.5,19.5 C 930.833,19.5 948.167,19.5 965.5,19.5C 965.5,28.1667 965.5,36.8333 965.5,45.5C 965.5,59.1667 965.5,72.8333 965.5,86.5C 948.167,86.5 930.833,86.5 913.5,86.5C 913.5,64.1667 913.5,41.8333 913.5,19.5 Z"/></g>
<g><path style="opacity:1" fill="#016d93" d="M 928.5,55.5 C 935.833,55.5 943.167,55.5 950.5,55.5C 950.5,45.1667 950.5,34.8333 950.5,24.5C 953.572,24.8174 956.572,24.4841 959.5,23.5C 945.167,22.1667 930.833,22.1667 916.5,23.5C 921.411,25.6728 920.745,26.6728 914.5,26.5C 914.261,24.5328 914.594,22.6995 915.5,21C 931.844,20.1671 948.177,20.3337 964.5,21.5C 963.609,22.5896 962.609,22.5896 961.5,21.5C 960.928,23.0778 960.594,24.5778 960.5,26C 951.264,26.3021 950.764,27.1354 959,28.5C 960.561,28.3968 962.061,28.0634 963.5,27.5C 964.5,46.8218 964.833,66.1552 964.5,85.5C 948.153,85.8328 931.82,85.4994 915.5,84.5C 930.397,83.8257 945.23,83.1591 960,82.5C 960.414,82.9574 960.914,83.2907 961.5,83.5C 962.833,65.8333 962.833,48.1667 961.5,30.5C 960.224,35.6817 959.557,35.6817 959.5,30.5C 953.833,30.6636 953.5,30.9969 958.5,31.5C 957.998,36.8384 957.831,42.1717 958,47.5C 958.206,44.3771 958.873,41.3771 960,38.5C 960.236,40.764 960.736,42.9307 961.5,45C 960.813,50.802 960.146,56.6354 959.5,62.5C 960.621,68.1138 960.788,73.7805 960,79.5C 945.53,80.1745 931.03,80.8412 916.5,81.5C 915.914,81.2907 915.414,80.9574 915,80.5C 914.5,63.5033 914.333,46.5033 914.5,29.5C 917.271,29.5793 919.937,29.0793 922.5,28C 923.337,26.9887 923.67,25.8221 923.5,24.5C 924.833,24.5 926.167,24.5 927.5,24.5C 927.172,35.0135 927.506,45.3468 928.5,55.5 Z"/></g>
<g><path style="opacity:1" fill="#42a3bf" d="M 950.5,24.5 C 950.5,34.8333 950.5,45.1667 950.5,55.5C 943.167,55.5 935.833,55.5 928.5,55.5C 928.5,45.1667 928.5,34.8333 928.5,24.5C 935.833,24.5 943.167,24.5 950.5,24.5 Z"/></g>
<g><path style="opacity:1" fill="#016736" d="M 1152.5,56.5 C 1161.5,56.5 1170.5,56.5 1179.5,56.5C 1184.83,56.5 1190.17,56.5 1195.5,56.5C 1201.83,56.5 1208.17,56.5 1214.5,56.5C 1214.5,57.8333 1214.5,59.1667 1214.5,60.5C 1215.5,60.5 1216.5,60.5 1217.5,60.5C 1217.83,63.1667 1218.17,65.8333 1218.5,68.5C 1218.5,74.8333 1218.5,81.1667 1218.5,87.5C 1218.5,90.1667 1218.5,92.8333 1218.5,95.5C 1196.5,95.5 1174.5,95.5 1152.5,95.5C 1152.5,82.5 1152.5,69.5 1152.5,56.5 Z"/></g>
<g><path style="opacity:1" fill="#b8a32a" d="M 1033.5,57.5 C 1034.79,57.2627 1035.79,57.596 1036.5,58.5C 1034.56,63.0557 1033.89,68.0557 1034.5,73.5C 1034.5,74.1667 1034.17,74.5 1033.5,74.5C 1033.5,68.8333 1033.5,63.1667 1033.5,57.5 Z"/></g>
<g><path style="opacity:1" fill="#eda136" d="M 1039.5,63.5 C 1040.65,63.7911 1041.32,64.6244 1041.5,66C 1041.32,67.3756 1040.65,68.2089 1039.5,68.5C 1039.5,66.8333 1039.5,65.1667 1039.5,63.5 Z"/></g>
<g><path style="opacity:1" fill="#fadb1d" d="M 1036.5,58.5 C 1038.76,59.344 1039.76,61.0107 1039.5,63.5C 1039.5,65.1667 1039.5,66.8333 1039.5,68.5C 1039.84,72.1507 1038.17,73.8174 1034.5,73.5C 1033.89,68.0557 1034.56,63.0557 1036.5,58.5 Z"/></g>
<g><path style="opacity:1" fill="#058f48" d="M 1157.5,68.5 C 1174.83,68.5 1192.17,68.5 1209.5,68.5C 1209.5,69.8333 1209.5,71.1667 1209.5,72.5C 1192.17,72.5 1174.83,72.5 1157.5,72.5C 1157.5,71.1667 1157.5,69.8333 1157.5,68.5 Z"/></g>
<g><path style="opacity:1" fill="#063d21" d="M 1218.5,68.5 C 1221.83,68.5 1225.17,68.5 1228.5,68.5C 1228.5,74.8333 1228.5,81.1667 1228.5,87.5C 1225.17,87.5 1221.83,87.5 1218.5,87.5C 1218.5,81.1667 1218.5,74.8333 1218.5,68.5 Z"/></g>
<g><path style="opacity:1" fill="#190c04" d="M 913.5,86.5 C 930.833,86.5 948.167,86.5 965.5,86.5C 965.833,86.5 966.167,86.5 966.5,86.5C 988.242,86.1783 1009.91,86.5116 1031.5,87.5C 1032.5,87.8333 1033.17,88.5 1033.5,89.5C 993.69,91.1794 953.69,92.1794 913.5,92.5C 913.5,90.5 913.5,88.5 913.5,86.5 Z"/></g>
<g><path style="opacity:1" fill="#2f241a" d="M 1033.5,89.5 C 1040.77,94.0318 1044.44,100.698 1044.5,109.5C 1041.17,109.5 1037.83,109.5 1034.5,109.5C 1034.5,108.5 1034.5,107.5 1034.5,106.5C 1035.55,106.649 1036.55,106.483 1037.5,106C 1036.06,105.781 1034.73,105.281 1033.5,104.5C 1027,95.8278 1019,94.3278 1009.5,100C 1006.57,102.91 1005.23,106.077 1005.5,109.5C 1003.5,109.5 1001.5,109.5 999.5,109.5C 997.983,104.443 995.983,99.6092 993.5,95C 986.315,92.5582 978.981,92.0582 971.5,93.5C 970.653,94.8448 969.487,95.8448 968,96.5C 965.363,101.197 963.863,105.53 963.5,109.5C 961.5,109.5 959.5,109.5 957.5,109.5C 956.344,98.5146 950.178,92.848 939,92.5C 927.765,92.8979 922.265,98.5646 922.5,109.5C 919.5,109.5 916.5,109.5 913.5,109.5C 913.471,105.895 912.805,102.395 911.5,99C 912.091,96.761 912.758,94.5943 913.5,92.5C 953.69,92.1794 993.69,91.1794 1033.5,89.5 Z"/></g>
<g><path style="opacity:1" fill="#030402" d="M 1145.5,95.5 C 1146.29,99.8623 1147.29,104.196 1148.5,108.5C 1147.84,110.453 1147.51,112.453 1147.5,114.5C 1145.82,115.183 1145.16,116.517 1145.5,118.5C 1144.57,119.568 1144.23,120.901 1144.5,122.5C 1143.5,122.5 1142.5,122.5 1141.5,122.5C 1141.5,123.833 1141.5,125.167 1141.5,126.5C 1139.83,126.5 1138.17,126.5 1136.5,126.5C 1136.5,127.833 1136.5,129.167 1136.5,130.5C 1147.17,130.5 1157.83,130.5 1168.5,130.5C 1168.5,129.167 1168.5,127.833 1168.5,126.5C 1167.5,126.5 1166.5,126.5 1165.5,126.5C 1165.5,125.167 1165.5,123.833 1165.5,122.5C 1164.17,122.5 1162.83,122.5 1161.5,122.5C 1161.5,121.167 1161.5,119.833 1161.5,118.5C 1161.5,117.167 1161.5,115.833 1161.5,114.5C 1163.85,112.473 1165.18,109.806 1165.5,106.5C 1167.5,106.5 1169.5,106.5 1171.5,106.5C 1171.5,105.167 1171.5,103.833 1171.5,102.5C 1175.5,102.5 1179.5,102.5 1183.5,102.5C 1183.5,103.833 1183.5,105.167 1183.5,106.5C 1184.83,106.5 1186.17,106.5 1187.5,106.5C 1187.5,107.833 1187.5,109.167 1187.5,110.5C 1188.5,110.5 1189.5,110.5 1190.5,110.5C 1190.5,113.167 1190.5,115.833 1190.5,118.5C 1189.83,121.167 1189.17,123.833 1188.5,126.5C 1187.5,126.5 1186.5,126.5 1185.5,126.5C 1185.5,127.833 1185.5,129.167 1185.5,130.5C 1190.5,130.5 1195.5,130.5 1200.5,130.5C 1200.5,129.167 1200.5,127.833 1200.5,126.5C 1199.5,126.5 1198.5,126.5 1197.5,126.5C 1196.83,123.833 1196.17,121.167 1195.5,118.5C 1195.93,114.323 1196.93,110.323 1198.5,106.5C 1200.17,106.5 1201.83,106.5 1203.5,106.5C 1203.5,105.167 1203.5,103.833 1203.5,102.5C 1207.5,102.5 1211.5,102.5 1215.5,102.5C 1215.5,103.833 1215.5,105.167 1215.5,106.5C 1216.83,106.5 1218.17,106.5 1219.5,106.5C 1219.5,107.833 1219.5,109.167 1219.5,110.5C 1220.5,110.5 1221.5,110.5 1222.5,110.5C 1222.83,113.167 1223.17,115.833 1223.5,118.5C 1222.23,120.905 1221.57,123.572 1221.5,126.5C 1220.5,126.5 1219.5,126.5 1218.5,126.5C 1218.5,127.833 1218.5,129.167 1218.5,130.5C 1223.17,130.5 1227.83,130.5 1232.5,130.5C 1232.5,131.833 1232.5,133.167 1232.5,134.5C 1185.83,134.5 1139.17,134.5 1092.5,134.5C 1092.5,133.167 1092.5,131.833 1092.5,130.5C 1099.5,130.5 1106.5,130.5 1113.5,130.5C 1113.5,129.167 1113.5,127.833 1113.5,126.5C 1111.5,126.5 1109.5,126.5 1107.5,126.5C 1107.18,123.194 1105.85,120.527 1103.5,118.5C 1103.15,115.115 1102.49,111.782 1101.5,108.5C 1102.24,104.072 1103.24,99.739 1104.5,95.5C 1105.5,95.5 1106.5,95.5 1107.5,95.5C 1107.5,94.1667 1107.5,92.8333 1107.5,91.5C 1108.5,91.5 1109.5,91.5 1110.5,91.5C 1110.5,90.1667 1110.5,88.8333 1110.5,87.5C 1113.83,87.5 1117.17,87.5 1120.5,87.5C 1120.5,86.1667 1120.5,84.8333 1120.5,83.5C 1123.5,83.5 1126.5,83.5 1129.5,83.5C 1129.5,84.8333 1129.5,86.1667 1129.5,87.5C 1132.5,87.5 1135.5,87.5 1138.5,87.5C 1138.5,88.8333 1138.5,90.1667 1138.5,91.5C 1139.83,91.5 1141.17,91.5 1142.5,91.5C 1142.5,92.8333 1142.5,94.1667 1142.5,95.5C 1143.5,95.5 1144.5,95.5 1145.5,95.5 Z"/></g>
<g><path style="opacity:1" fill="#043d20" d="M 1145.5,95.5 C 1147.83,95.5 1150.17,95.5 1152.5,95.5C 1174.5,95.5 1196.5,95.5 1218.5,95.5C 1220.83,95.5 1223.17,95.5 1225.5,95.5C 1228.44,103.057 1231.11,110.724 1233.5,118.5C 1230.17,118.5 1226.83,118.5 1223.5,118.5C 1223.17,115.833 1222.83,113.167 1222.5,110.5C 1221.5,110.5 1220.5,110.5 1219.5,110.5C 1219.5,109.167 1219.5,107.833 1219.5,106.5C 1218.17,106.5 1216.83,106.5 1215.5,106.5C 1215.5,105.167 1215.5,103.833 1215.5,102.5C 1211.5,102.5 1207.5,102.5 1203.5,102.5C 1203.5,103.833 1203.5,105.167 1203.5,106.5C 1201.83,106.5 1200.17,106.5 1198.5,106.5C 1196.93,110.323 1195.93,114.323 1195.5,118.5C 1193.83,118.5 1192.17,118.5 1190.5,118.5C 1190.5,115.833 1190.5,113.167 1190.5,110.5C 1189.5,110.5 1188.5,110.5 1187.5,110.5C 1187.5,109.167 1187.5,107.833 1187.5,106.5C 1186.17,106.5 1184.83,106.5 1183.5,106.5C 1183.5,105.167 1183.5,103.833 1183.5,102.5C 1179.5,102.5 1175.5,102.5 1171.5,102.5C 1171.5,103.833 1171.5,105.167 1171.5,106.5C 1169.5,106.5 1167.5,106.5 1165.5,106.5C 1165.18,109.806 1163.85,112.473 1161.5,114.5C 1156.83,114.5 1152.17,114.5 1147.5,114.5C 1147.51,112.453 1147.84,110.453 1148.5,108.5C 1147.29,104.196 1146.29,99.8623 1145.5,95.5 Z"/></g>
<g><path style="opacity:1" fill="#073a1f" d="M 1096.5,95.5 C 1096.83,95.5 1097.17,95.5 1097.5,95.5C 1099.83,95.5 1102.17,95.5 1104.5,95.5C 1103.24,99.739 1102.24,104.072 1101.5,108.5C 1102.49,111.782 1103.15,115.115 1103.5,118.5C 1099.5,118.5 1095.5,118.5 1091.5,118.5C 1091.5,110.833 1091.5,103.167 1091.5,95.5C 1093.17,95.5 1094.83,95.5 1096.5,95.5 Z"/></g>
<g><path style="opacity:1" fill="#4a423c" d="M 999.5,109.5 C 998.044,117.624 993.377,122.957 985.5,125.5C 982.201,126.747 978.867,126.747 975.5,125.5C 968.131,122.786 964.131,117.452 963.5,109.5C 963.863,105.53 965.363,101.197 968,96.5C 969.487,95.8448 970.653,94.8448 971.5,93.5C 978.981,92.0582 986.315,92.5582 993.5,95C 995.983,99.6092 997.983,104.443 999.5,109.5 Z"/></g>
<g><path style="opacity:1" fill="#f28411" d="M 977.5,102.5 C 986.807,101.953 989.474,105.787 985.5,114C 977.565,116.735 974.065,113.902 975,105.5C 975.698,104.309 976.531,103.309 977.5,102.5 Z"/></g>
<g><path style="opacity:1" fill="#f3f3f0" d="M 957.5,109.5 C 959.5,109.5 961.5,109.5 963.5,109.5C 964.131,117.452 968.131,122.786 975.5,125.5C 965.167,126.833 954.833,126.833 944.5,125.5C 951.851,122.495 956.184,117.161 957.5,109.5 Z"/></g>
<g><path style="opacity:1" fill="#f3f2f0" d="M 999.5,109.5 C 1001.5,109.5 1003.5,109.5 1005.5,109.5C 1004.38,117.7 1007.72,123.033 1015.5,125.5C 1005.5,126.833 995.5,126.833 985.5,125.5C 993.377,122.957 998.044,117.624 999.5,109.5 Z"/></g>
<g><path style="opacity:1" fill="#4e4e4e" d="M 1113.5,91.5 C 1120.83,91.5 1128.17,91.5 1135.5,91.5C 1135.5,92.8333 1135.5,94.1667 1135.5,95.5C 1137.17,95.5 1138.83,95.5 1140.5,95.5C 1142.51,99.5424 1143.51,103.876 1143.5,108.5C 1143.04,111.915 1142.38,115.248 1141.5,118.5C 1140.5,118.5 1139.5,118.5 1138.5,118.5C 1138.5,119.833 1138.5,121.167 1138.5,122.5C 1136.83,122.5 1135.17,122.5 1133.5,122.5C 1133.5,123.833 1133.5,125.167 1133.5,126.5C 1127.5,126.5 1121.5,126.5 1115.5,126.5C 1115.5,125.167 1115.5,123.833 1115.5,122.5C 1113.83,122.5 1112.17,122.5 1110.5,122.5C 1110.5,121.167 1110.5,119.833 1110.5,118.5C 1109.5,118.5 1108.5,118.5 1107.5,118.5C 1107.15,115.115 1106.49,111.782 1105.5,108.5C 1106.45,103.984 1107.78,99.6511 1109.5,95.5C 1110.83,95.5 1112.17,95.5 1113.5,95.5C 1113.5,94.1667 1113.5,92.8333 1113.5,91.5 Z"/></g>
<g><path style="opacity:1" fill="#020202" d="M 1115.5,95.5 C 1121.5,95.5 1127.5,95.5 1133.5,95.5C 1133.5,96.8333 1133.5,98.1667 1133.5,99.5C 1134.5,99.5 1135.5,99.5 1136.5,99.5C 1137.31,101.743 1137.98,104.076 1138.5,106.5C 1138.06,110.685 1137.06,114.685 1135.5,118.5C 1134.17,118.5 1132.83,118.5 1131.5,118.5C 1131.5,119.833 1131.5,121.167 1131.5,122.5C 1127.17,122.5 1122.83,122.5 1118.5,122.5C 1118.5,121.167 1118.5,119.833 1118.5,118.5C 1116.83,118.5 1115.17,118.5 1113.5,118.5C 1111.24,113.449 1110.24,108.115 1110.5,102.5C 1111.5,102.5 1112.5,102.5 1113.5,102.5C 1114.45,100.263 1115.12,97.9294 1115.5,95.5 Z"/></g>
<g><path style="opacity:1" fill="#4d4d4d" d="M 1118.5,99.5 C 1122.5,99.5 1126.5,99.5 1130.5,99.5C 1130.5,100.5 1130.5,101.5 1130.5,102.5C 1131.5,102.5 1132.5,102.5 1133.5,102.5C 1133.51,104.547 1133.84,106.547 1134.5,108.5C 1133.25,110.334 1132.58,112.334 1132.5,114.5C 1131.17,114.5 1129.83,114.5 1128.5,114.5C 1128.5,115.833 1128.5,117.167 1128.5,118.5C 1126.17,118.5 1123.83,118.5 1121.5,118.5C 1121.5,117.167 1121.5,115.833 1121.5,114.5C 1119.83,114.5 1118.17,114.5 1116.5,114.5C 1115.84,110.534 1115.5,106.534 1115.5,102.5C 1116.5,102.5 1117.5,102.5 1118.5,102.5C 1118.5,101.5 1118.5,100.5 1118.5,99.5 Z"/></g>
<g><path style="opacity:1" fill="#052613" d="M 1147.5,114.5 C 1152.17,114.5 1156.83,114.5 1161.5,114.5C 1161.5,115.833 1161.5,117.167 1161.5,118.5C 1156.17,118.5 1150.83,118.5 1145.5,118.5C 1145.16,116.517 1145.82,115.183 1147.5,114.5 Z"/></g>
<g><path style="opacity:1" fill="#4d4d4d" d="M 1206.5,106.5 C 1208.83,106.5 1211.17,106.5 1213.5,106.5C 1213.5,107.833 1213.5,109.167 1213.5,110.5C 1214.83,110.5 1216.17,110.5 1217.5,110.5C 1218.16,114.466 1218.5,118.466 1218.5,122.5C 1217.5,122.5 1216.5,122.5 1215.5,122.5C 1215.5,123.833 1215.5,125.167 1215.5,126.5C 1211.5,126.5 1207.5,126.5 1203.5,126.5C 1203.5,125.167 1203.5,123.833 1203.5,122.5C 1202.5,122.5 1201.5,122.5 1200.5,122.5C 1200.5,118.466 1200.84,114.466 1201.5,110.5C 1203.17,110.5 1204.83,110.5 1206.5,110.5C 1206.5,109.167 1206.5,107.833 1206.5,106.5 Z"/></g>
<g><path style="opacity:1" fill="#070707" d="M 1208.5,110.5 C 1210.18,111.183 1210.84,112.517 1210.5,114.5C 1211.83,114.5 1213.17,114.5 1214.5,114.5C 1214.17,117.167 1213.83,119.833 1213.5,122.5C 1211.17,122.5 1208.83,122.5 1206.5,122.5C 1205.83,119.833 1205.17,117.167 1204.5,114.5C 1205.83,114.5 1207.17,114.5 1208.5,114.5C 1208.5,113.167 1208.5,111.833 1208.5,110.5 Z"/></g>
<g><path style="opacity:1" fill="#49413c" d="M 1034.5,109.5 C 1035.21,117.428 1031.87,122.761 1024.5,125.5C 1021.46,126.734 1018.46,126.734 1015.5,125.5C 1007.72,123.033 1004.38,117.7 1005.5,109.5C 1005.23,106.077 1006.57,102.91 1009.5,100C 1019,94.3278 1027,95.8278 1033.5,104.5C 1034.73,105.281 1036.06,105.781 1037.5,106C 1036.55,106.483 1035.55,106.649 1034.5,106.5C 1034.5,107.5 1034.5,108.5 1034.5,109.5 Z"/></g>
<g><path style="opacity:1" fill="#744c25" d="M 1016.5,106.5 C 1019.44,105.17 1022.44,105.337 1025.5,107C 1026.81,109.605 1026.81,112.105 1025.5,114.5C 1026.14,108.102 1023.14,105.436 1016.5,106.5 Z"/></g>
<g><path style="opacity:1" fill="#ed8314" d="M 1016.5,106.5 C 1023.14,105.436 1026.14,108.102 1025.5,114.5C 1025.05,115.458 1024.38,116.292 1023.5,117C 1015.49,118.655 1012.66,115.488 1015,107.5C 1015.38,106.944 1015.88,106.611 1016.5,106.5 Z"/></g>
<g><path style="opacity:1" fill="#fbfcfc" d="M 1145.5,118.5 C 1150.83,118.5 1156.17,118.5 1161.5,118.5C 1161.5,119.833 1161.5,121.167 1161.5,122.5C 1162.83,122.5 1164.17,122.5 1165.5,122.5C 1165.5,123.833 1165.5,125.167 1165.5,126.5C 1166.5,126.5 1167.5,126.5 1168.5,126.5C 1168.5,127.833 1168.5,129.167 1168.5,130.5C 1157.83,130.5 1147.17,130.5 1136.5,130.5C 1136.5,129.167 1136.5,127.833 1136.5,126.5C 1138.17,126.5 1139.83,126.5 1141.5,126.5C 1141.5,125.167 1141.5,123.833 1141.5,122.5C 1142.5,122.5 1143.5,122.5 1144.5,122.5C 1144.23,120.901 1144.57,119.568 1145.5,118.5 Z"/></g>
<g><path style="opacity:1" fill="#fafafa" d="M 1190.5,118.5 C 1192.17,118.5 1193.83,118.5 1195.5,118.5C 1196.17,121.167 1196.83,123.833 1197.5,126.5C 1198.5,126.5 1199.5,126.5 1200.5,126.5C 1200.5,127.833 1200.5,129.167 1200.5,130.5C 1195.5,130.5 1190.5,130.5 1185.5,130.5C 1185.5,129.167 1185.5,127.833 1185.5,126.5C 1186.5,126.5 1187.5,126.5 1188.5,126.5C 1189.17,123.833 1189.83,121.167 1190.5,118.5 Z"/></g>
<g><path style="opacity:1" fill="#4a423d" d="M 957.5,109.5 C 956.184,117.161 951.851,122.495 944.5,125.5C 940.816,126.728 937.15,126.728 933.5,125.5C 925.906,122.901 922.24,117.567 922.5,109.5C 922.265,98.5646 927.765,92.8979 939,92.5C 950.178,92.848 956.344,98.5146 957.5,109.5 Z"/></g>
<g><path style="opacity:1" fill="#f5840d" d="M 942.5,103.5 C 944.556,104.593 945.556,106.426 945.5,109C 945.309,111.05 944.642,112.883 943.5,114.5C 940.894,115.652 938.227,115.818 935.5,115C 934.177,114.184 933.511,113.017 933.5,111.5C 933.325,105.344 936.325,102.677 942.5,103.5 Z"/></g>
<g><path style="opacity:1" fill="#b06e22" d="M 942.5,103.5 C 936.325,102.677 933.325,105.344 933.5,111.5C 931.853,108.248 932.52,105.414 935.5,103C 938.039,102.204 940.372,102.371 942.5,103.5 Z"/></g>
<g><path style="opacity:1" fill="#4d4d4d" d="M 1173.5,106.5 C 1175.83,106.5 1178.17,106.5 1180.5,106.5C 1180.5,107.833 1180.5,109.167 1180.5,110.5C 1181.83,110.5 1183.17,110.5 1184.5,110.5C 1184.58,112.666 1185.25,114.666 1186.5,116.5C 1185.84,118.453 1185.51,120.453 1185.5,122.5C 1184.5,122.5 1183.5,122.5 1182.5,122.5C 1182.5,123.833 1182.5,125.167 1182.5,126.5C 1178.83,126.5 1175.17,126.5 1171.5,126.5C 1171.5,125.167 1171.5,123.833 1171.5,122.5C 1170.5,122.5 1169.5,122.5 1168.5,122.5C 1167.17,118.5 1167.17,114.5 1168.5,110.5C 1170.17,110.5 1171.83,110.5 1173.5,110.5C 1173.5,109.167 1173.5,107.833 1173.5,106.5 Z"/></g>
<g><path style="opacity:1" fill="#010101" d="M 1176.5,110.5 C 1177.43,111.568 1177.77,112.901 1177.5,114.5C 1178.83,114.5 1180.17,114.5 1181.5,114.5C 1181.17,117.167 1180.83,119.833 1180.5,122.5C 1178.17,122.5 1175.83,122.5 1173.5,122.5C 1173.17,119.833 1172.83,117.167 1172.5,114.5C 1173.83,114.5 1175.17,114.5 1176.5,114.5C 1176.5,113.167 1176.5,111.833 1176.5,110.5 Z"/></g>
<g><path style="opacity:1" fill="#b0937d" d="M 933.5,125.5 C 937.15,126.728 940.816,126.728 944.5,125.5C 954.833,126.833 965.167,126.833 975.5,125.5C 978.867,126.747 982.201,126.747 985.5,125.5C 995.5,126.833 1005.5,126.833 1015.5,125.5C 1018.46,126.734 1021.46,126.734 1024.5,125.5C 1029.98,126.489 1035.64,126.822 1041.5,126.5C 1041.5,127.833 1041.5,129.167 1041.5,130.5C 1038.83,130.5 1036.17,130.5 1033.5,130.5C 1028.35,129.349 1023.02,129.183 1017.5,130C 1016.03,130.71 1015.36,131.876 1015.5,133.5C 1014.6,132.791 1014.26,131.791 1014.5,130.5C 1007.83,130.5 1001.17,130.5 994.5,130.5C 994.5,131.5 994.5,132.5 994.5,133.5C 988.167,133.5 981.833,133.5 975.5,133.5C 975.5,132.5 975.5,131.5 975.5,130.5C 968.5,130.5 961.5,130.5 954.5,130.5C 954.737,131.791 954.404,132.791 953.5,133.5C 953.67,132.178 953.337,131.011 952.5,130C 947.177,129.501 941.844,129.334 936.5,129.5C 936.5,130.833 936.5,132.167 936.5,133.5C 935.596,132.791 935.263,131.791 935.5,130.5C 928.5,130.5 921.5,130.5 914.5,130.5C 914.5,131.5 914.5,132.5 914.5,133.5C 913.5,133.5 912.5,133.5 911.5,133.5C 911.5,131.167 911.5,128.833 911.5,126.5C 919.019,126.825 926.352,126.492 933.5,125.5 Z"/></g>
<g><path style="opacity:1" fill="#967054" d="M 953.5,133.5 C 947.833,133.5 942.167,133.5 936.5,133.5C 936.5,132.167 936.5,130.833 936.5,129.5C 941.844,129.334 947.177,129.501 952.5,130C 953.337,131.011 953.67,132.178 953.5,133.5 Z"/></g>
<g><path style="opacity:1" fill="#977155" d="M 1033.5,130.5 C 1033.5,131.5 1033.5,132.5 1033.5,133.5C 1027.5,133.5 1021.5,133.5 1015.5,133.5C 1015.36,131.876 1016.03,130.71 1017.5,130C 1023.02,129.183 1028.35,129.349 1033.5,130.5 Z"/></g>
<g><path style="opacity:1" fill="#036736" d="M 183.5,247.5 C 182.833,247.5 182.5,247.833 182.5,248.5C 181.833,248.5 181.167,248.5 180.5,248.5C 168.167,248.5 155.833,248.5 143.5,248.5C 138.77,248.717 134.103,248.383 129.5,247.5C 127.83,247.249 126.33,246.582 125,245.5C 124.201,240.913 124.368,236.413 125.5,232C 127.087,231.138 128.754,230.471 130.5,230C 139.167,229.833 147.833,229.667 156.5,229.5C 166.556,229.385 176.556,229.885 186.5,231C 187,231.5 187.5,232 188,232.5C 188.667,236.833 188.667,241.167 188,245.5C 186.89,247.037 185.39,247.703 183.5,247.5 Z"/></g>
<g><path style="opacity:1" fill="#da6f5e" d="M 308.5,237.5 C 271.33,237.168 234.33,237.502 197.5,238.5C 196.833,238.833 196.167,239.167 195.5,239.5C 195.414,238.504 195.748,237.671 196.5,237C 234.002,236.169 271.336,236.336 308.5,237.5 Z"/></g>
<g><path style="opacity:1" fill="#f8df8e" d="M 553.5,237.5 C 516.663,237.168 479.996,237.502 443.5,238.5C 442.517,242.298 442.183,246.298 442.5,250.5C 441.177,246.1 441.177,241.6 442.5,237C 479.669,236.169 516.669,236.336 553.5,237.5 Z"/></g>
<g><path style="opacity:1" fill="#fcde9f" d="M 801.5,237.5 C 764.165,237.333 726.832,237.5 689.5,238C 688.956,238.717 688.289,239.217 687.5,239.5C 687.818,237.182 689.152,235.848 691.5,235.5C 728.313,236.154 764.98,236.821 801.5,237.5 Z"/></g>
<g><path style="opacity:1" fill="#f9ce41" d="M 443.5,238.5 C 479.996,237.502 516.663,237.168 553.5,237.5C 553.833,237.5 554.167,237.5 554.5,237.5C 554.5,242.833 554.5,248.167 554.5,253.5C 552.167,253.5 549.833,253.5 547.5,253.5C 549.265,252.539 551.265,252.205 553.5,252.5C 554.065,247.678 553.399,243.178 551.5,239C 515.502,238.5 479.502,238.333 443.5,238.5 Z"/></g>
<g><path style="opacity:1" fill="#f9b435" d="M 801.5,237.5 C 802.117,237.611 802.617,237.944 803,238.5C 803.814,243.02 803.647,247.354 802.5,251.5C 802.797,247.233 802.464,243.066 801.5,239C 764.5,238.333 727.5,238.333 690.5,239C 690.085,241.026 689.085,242.526 687.5,243.5C 687.5,242.167 687.5,240.833 687.5,239.5C 688.289,239.217 688.956,238.717 689.5,238C 726.832,237.5 764.165,237.333 801.5,237.5 Z"/></g>
<g><path style="opacity:1" fill="#1fb318" d="M 678.5,237.5 C 679.441,242.07 679.774,246.737 679.5,251.5C 679.5,252.167 679.167,252.5 678.5,252.5C 641.006,251.574 603.339,251.24 565.5,251.5C 564.198,246.964 564.198,242.297 565.5,237.5C 603.331,236.17 640.998,236.17 678.5,237.5 Z"/></g>
<g><path style="opacity:1" fill="#fe8706" d="M 802.5,251.5 C 764.663,251.168 726.996,251.502 689.5,252.5C 687.612,250.012 686.945,247.012 687.5,243.5C 689.085,242.526 690.085,241.026 690.5,239C 727.5,238.333 764.5,238.333 801.5,239C 802.464,243.066 802.797,247.233 802.5,251.5 Z"/></g>
<g><path style="opacity:1" fill="#e0280c" d="M 197.5,238.5 C 234.33,237.502 271.33,237.168 308.5,237.5C 309.458,237.953 310.292,238.619 311,239.5C 311.827,243.541 311.66,247.541 310.5,251.5C 307.465,253.301 304.131,253.968 300.5,253.5C 300.5,256.833 300.5,260.167 300.5,263.5C 299.833,271.5 299.167,279.5 298.5,287.5C 298.5,276.167 298.5,264.833 298.5,253.5C 267.833,253.5 237.167,253.5 206.5,253.5C 206.5,253.167 206.5,252.833 206.5,252.5C 235.762,251.675 265.095,251.175 294.5,251C 303.745,246.911 303.412,246.078 293.5,248.5C 293.238,247.022 293.571,245.689 294.5,244.5C 297.632,242.865 300.632,241.032 303.5,239C 268.168,238.5 232.835,238.333 197.5,238.5 Z"/></g>
<g><path style="opacity:1" fill="#eb1f01" d="M 197.5,238.5 C 232.835,238.333 268.168,238.5 303.5,239C 300.632,241.032 297.632,242.865 294.5,244.5C 293.571,245.689 293.238,247.022 293.5,248.5C 303.412,246.078 303.745,246.911 294.5,251C 265.095,251.175 235.762,251.675 206.5,252.5C 203.375,251.521 200.042,251.187 196.5,251.5C 195.517,247.702 195.183,243.702 195.5,239.5C 196.167,239.167 196.833,238.833 197.5,238.5 Z"/></g>
<g><path style="opacity:1" fill="#8ed78e" d="M 678.5,237.5 C 679.805,239.397 680.471,241.731 680.5,244.5C 680.497,247.025 680.163,249.359 679.5,251.5C 679.774,246.737 679.441,242.07 678.5,237.5 Z"/></g>
<g><path style="opacity:1" fill="#0189bc" d="M 319.5,238.5 C 357.167,238.5 394.833,238.5 432.5,238.5C 432.666,242.514 432.499,246.514 432,250.5C 431.837,248.324 431.004,246.491 429.5,245C 430.369,243.535 429.869,242.369 428,241.5C 426.274,241.946 424.774,242.779 423.5,244C 421.866,244.494 420.199,244.66 418.5,244.5C 418.5,246.167 418.5,247.833 418.5,249.5C 390.492,249.833 362.492,249.5 334.5,248.5C 333.593,245.579 333.26,242.579 333.5,239.5C 332.5,239.5 331.5,239.5 330.5,239.5C 330.646,243.519 330.979,247.519 331.5,251.5C 330.5,251.5 329.5,251.5 328.5,251.5C 328.89,247.606 328.223,243.94 326.5,240.5C 323.75,242.078 321.417,241.745 319.5,239.5C 319.5,239.167 319.5,238.833 319.5,238.5 Z"/></g>
<g><path style="opacity:1" fill="#e6650c" d="M 802.5,251.5 C 802.389,252.117 802.056,252.617 801.5,253C 798.518,253.498 795.518,253.665 792.5,253.5C 792.5,256.5 792.5,259.5 792.5,262.5C 792.167,262.5 791.833,262.5 791.5,262.5C 791.5,259.5 791.5,256.5 791.5,253.5C 760.5,253.5 729.5,253.5 698.5,253.5C 698.167,253.5 697.833,253.5 697.5,253.5C 694.615,253.806 691.948,253.473 689.5,252.5C 726.996,251.502 764.663,251.168 802.5,251.5 Z"/></g>
<g><path style="opacity:1" fill="#d22c12" d="M 924.5,238.5 C 925.117,238.611 925.617,238.944 926,239.5C 926.667,243.5 926.667,247.5 926,251.5C 923.174,253.34 920.007,254.006 916.5,253.5C 915.833,261.833 915.167,270.167 914.5,278.5C 914.831,270.14 914.498,261.807 913.5,253.5C 883.345,253.519 853.012,253.519 822.5,253.5C 822.5,262.167 822.5,270.833 822.5,279.5C 822.167,279.5 821.833,279.5 821.5,279.5C 821.5,270.833 821.5,262.167 821.5,253.5C 818.482,253.665 815.482,253.498 812.5,253C 812,252.5 811.5,252 811,251.5C 810.201,246.913 810.368,242.413 811.5,238C 849.336,237.169 887.002,237.336 924.5,238.5 Z"/></g>
<g><path style="opacity:1" fill="#eb1f02" d="M 924.5,238.5 C 924.5,242.833 924.5,247.167 924.5,251.5C 887.249,251.502 849.915,251.502 812.5,251.5C 812.5,247.167 812.5,242.833 812.5,238.5C 849.833,238.5 887.167,238.5 924.5,238.5 Z"/></g>
<g><path style="opacity:1" fill="#043e21" d="M 112.5,271.5 C 107.167,271.5 101.833,271.5 96.5,271.5C 96.5,267.167 96.5,262.833 96.5,258.5C 94.8333,258.5 93.1667,258.5 91.5,258.5C 91.5,254.5 91.5,250.5 91.5,246.5C 100.167,246.5 108.833,246.5 117.5,246.5C 117.5,250.5 117.5,254.5 117.5,258.5C 115.833,258.5 114.167,258.5 112.5,258.5C 112.5,262.833 112.5,267.167 112.5,271.5 Z"/></g>
<g><path style="opacity:1" fill="#0a8f08" d="M 565.5,251.5 C 603.339,251.24 641.006,251.574 678.5,252.5C 675.713,253.477 672.713,253.81 669.5,253.5C 638.167,253.5 606.833,253.5 575.5,253.5C 575.5,256.833 575.5,260.167 575.5,263.5C 574.833,260.167 574.167,256.833 573.5,253.5C 571.143,253.663 568.81,253.497 566.5,253C 565.944,252.617 565.611,252.117 565.5,251.5 Z"/></g>
<g><path style="opacity:1" fill="#fff9c7" d="M 554.5,237.5 C 555.489,242.975 555.822,248.642 555.5,254.5C 553.167,254.5 550.833,254.5 548.5,254.5C 548.404,260.373 547.737,266.04 546.5,271.5C 546.177,265.31 546.51,259.31 547.5,253.5C 549.833,253.5 552.167,253.5 554.5,253.5C 554.5,248.167 554.5,242.833 554.5,237.5 Z"/></g>
<g><path style="opacity:1" fill="#019245" d="M 129.5,247.5 C 134.103,248.383 138.77,248.717 143.5,248.5C 154.988,249.495 166.655,249.828 178.5,249.5C 178.5,270.833 178.5,292.167 178.5,313.5C 162.167,313.5 145.833,313.5 129.5,313.5C 129.5,299.5 129.5,285.5 129.5,271.5C 129.5,263.5 129.5,255.5 129.5,247.5 Z"/></g>
<g><path style="opacity:1" fill="#e92001" d="M 206.5,253.5 C 237.167,253.5 267.833,253.5 298.5,253.5C 298.5,264.833 298.5,276.167 298.5,287.5C 298.5,292.833 298.5,298.167 298.5,303.5C 297.517,307.298 297.183,311.298 297.5,315.5C 300.988,315.54 304.321,316.207 307.5,317.5C 308.451,318.919 308.784,320.585 308.5,322.5C 308.5,325.167 308.5,327.833 308.5,330.5C 308.451,333.099 307.451,335.266 305.5,337C 302.183,337.498 298.85,337.665 295.5,337.5C 294.782,332.13 292.116,328.13 287.5,325.5C 285.208,324.534 282.708,323.867 280,323.5C 278.124,323.525 276.624,324.191 275.5,325.5C 273.243,325.962 271.243,326.962 269.5,328.5C 268.017,331.428 266.684,334.428 265.5,337.5C 257.167,337.5 248.833,337.5 240.5,337.5C 240.061,333.298 238.061,329.965 234.5,327.5C 233.547,325.39 231.881,324.223 229.5,324C 226.633,323.199 223.966,323.366 221.5,324.5C 216.167,326.5 212.5,330.167 210.5,335.5C 207.272,336.414 203.939,336.747 200.5,336.5C 198.087,335.32 197.087,333.32 197.5,330.5C 197.5,327.833 197.5,325.167 197.5,322.5C 197.338,320.473 197.505,318.473 198,316.5C 198.383,315.944 198.883,315.611 199.5,315.5C 202.5,315.5 205.5,315.5 208.5,315.5C 208.806,312.615 208.473,309.948 207.5,307.5C 207.4,296.491 207.066,285.491 206.5,274.5C 206.5,267.5 206.5,260.5 206.5,253.5 Z"/></g>
<g><path style="opacity:1" fill="#fec204" d="M 443.5,238.5 C 479.502,238.333 515.502,238.5 551.5,239C 553.399,243.178 554.065,247.678 553.5,252.5C 551.265,252.205 549.265,252.539 547.5,253.5C 546.51,259.31 546.177,265.31 546.5,271.5C 545.615,282.001 544.948,292.668 544.5,303.5C 543.518,306.962 543.185,310.629 543.5,314.5C 513.833,314.5 484.167,314.5 454.5,314.5C 454.282,305.317 453.615,296.317 452.5,287.5C 452.5,286.167 452.5,284.833 452.5,283.5C 452.499,273.486 452.166,263.486 451.5,253.5C 449.167,253.5 446.833,253.5 444.5,253.5C 442.952,253.179 442.285,252.179 442.5,250.5C 442.183,246.298 442.517,242.298 443.5,238.5 Z"/></g>
<g><path style="opacity:1" fill="#02ae03" d="M 669.5,253.5 C 669.5,257.833 669.5,262.167 669.5,266.5C 668.25,266.577 667.417,267.244 667,268.5C 666.713,283.848 666.213,299.181 665.5,314.5C 636.475,314.801 607.475,314.468 578.5,313.5C 578.706,306.604 578.039,299.937 576.5,293.5C 576.737,292.209 576.404,291.209 575.5,290.5C 575.5,286.167 575.5,281.833 575.5,277.5C 575.5,272.833 575.5,268.167 575.5,263.5C 575.5,260.167 575.5,256.833 575.5,253.5C 606.833,253.5 638.167,253.5 669.5,253.5 Z"/></g>
<g><path style="opacity:1" fill="#0d8b4a" d="M 183.5,247.5 C 183.5,269.833 183.5,292.167 183.5,314.5C 165.5,314.5 147.5,314.5 129.5,314.5C 129.5,314.167 129.5,313.833 129.5,313.5C 145.833,313.5 162.167,313.5 178.5,313.5C 178.5,292.167 178.5,270.833 178.5,249.5C 166.655,249.828 154.988,249.495 143.5,248.5C 155.833,248.5 168.167,248.5 180.5,248.5C 181.167,333.833 181.833,333.833 182.5,248.5C 182.5,247.833 182.833,247.5 183.5,247.5 Z"/></g>
<g><path style="opacity:1" fill="#009841" d="M 180.5,248.5 C 181.167,248.5 181.833,248.5 182.5,248.5C 181.833,333.833 181.167,333.833 180.5,248.5 Z"/></g>
<g><path style="opacity:1" fill="#0188bb" d="M 330.5,287.5 C 330.5,285.833 330.5,284.167 330.5,282.5C 331.033,277.036 332.199,271.702 334,266.5C 334.793,262.577 334.626,258.744 333.5,255C 334,254.5 334.5,254 335,253.5C 361.607,255.486 388.44,256.153 415.5,255.5C 416.523,271.87 416.523,288.203 415.5,304.5C 388.5,305.833 361.5,305.833 334.5,304.5C 333.379,298.886 333.212,293.22 334,287.5C 334.333,287.833 334.667,288.167 335,288.5C 335.667,282.833 335.667,277.167 335,271.5C 334.623,275.019 334.123,278.519 333.5,282C 334.761,284.795 333.761,286.629 330.5,287.5 Z"/></g>
<g><path style="opacity:1" fill="#fa7d06" d="M 698.5,253.5 C 729.5,253.5 760.5,253.5 791.5,253.5C 791.5,256.5 791.5,259.5 791.5,262.5C 790.608,272.134 790.275,281.801 790.5,291.5C 790.5,299.167 790.5,306.833 790.5,314.5C 760.5,314.5 730.5,314.5 700.5,314.5C 700.5,312.5 700.5,310.5 700.5,308.5C 700.754,290.127 700.087,271.794 698.5,253.5 Z"/></g>
<g><path style="opacity:1" fill="#d4523d" d="M 196.5,251.5 C 200.042,251.187 203.375,251.521 206.5,252.5C 206.5,252.833 206.5,253.167 206.5,253.5C 206.5,260.5 206.5,267.5 206.5,274.5C 205.509,267.687 205.175,260.687 205.5,253.5C 202.813,253.664 200.146,253.497 197.5,253C 196.944,252.617 196.611,252.117 196.5,251.5 Z"/></g>
<g><path style="opacity:1" fill="#42a5bf" d="M 655.5,260.5 C 655.5,270.167 655.5,279.833 655.5,289.5C 648.5,289.5 641.5,289.5 634.5,289.5C 634.5,279.833 634.5,270.167 634.5,260.5C 641.5,260.5 648.5,260.5 655.5,260.5 Z"/></g>
<g><path style="opacity:1" fill="#026837" d="M 137.5,252.5 C 149.5,252.5 161.5,252.5 173.5,252.5C 174.358,260.132 174.691,267.799 174.5,275.5C 161.833,275.5 149.167,275.5 136.5,275.5C 136.269,267.791 136.602,260.124 137.5,252.5 Z"/></g>
<g><path style="opacity:1" fill="#9edef4" d="M 141.5,256.5 C 150.833,256.5 160.167,256.5 169.5,256.5C 169.5,261.5 169.5,266.5 169.5,271.5C 160.167,271.5 150.833,271.5 141.5,271.5C 141.5,266.5 141.5,261.5 141.5,256.5 Z"/></g>
<g><path style="opacity:1" fill="#016736" d="M 96.5,271.5 C 101.833,271.5 107.167,271.5 112.5,271.5C 118.167,271.5 123.833,271.5 129.5,271.5C 129.5,285.5 129.5,299.5 129.5,313.5C 108.121,313.811 86.7877,313.478 65.5,312.5C 64.0689,312.119 63.2355,311.119 63,309.5C 62.5026,306.854 62.3359,304.187 62.5,301.5C 62.5,296.167 62.5,290.833 62.5,285.5C 60.9169,277.812 63.9169,273.312 71.5,272C 79.8267,271.5 88.16,271.334 96.5,271.5 Z"/></g>
<g><path style="opacity:1" fill="#caeecb" d="M 573.5,253.5 C 574.167,256.833 574.833,260.167 575.5,263.5C 575.5,268.167 575.5,272.833 575.5,277.5C 574.778,277.082 574.278,276.416 574,275.5C 573.5,268.174 573.334,260.841 573.5,253.5 Z"/></g>
<g><path style="opacity:1" fill="#34a385" d="M 655.5,259.5 C 655.5,259.833 655.5,260.167 655.5,260.5C 648.5,260.5 641.5,260.5 634.5,260.5C 634.5,270.167 634.5,279.833 634.5,289.5C 641.5,289.5 648.5,289.5 655.5,289.5C 655.5,289.833 655.5,290.167 655.5,290.5C 648.167,290.5 640.833,290.5 633.5,290.5C 633.5,280.167 633.5,269.833 633.5,259.5C 640.833,259.5 648.167,259.5 655.5,259.5 Z"/></g>
<g><path style="opacity:1" fill="#ed8f37" d="M 791.5,262.5 C 791.833,262.5 792.167,262.5 792.5,262.5C 792.364,272.354 791.698,282.021 790.5,291.5C 790.275,281.801 790.608,272.134 791.5,262.5 Z"/></g>
<g><path style="opacity:1" fill="#04911f" d="M 655.5,259.5 C 648.167,259.5 640.833,259.5 633.5,259.5C 633.5,269.833 633.5,280.167 633.5,290.5C 640.833,290.5 648.167,290.5 655.5,290.5C 648.018,291.492 640.352,291.825 632.5,291.5C 632.5,280.5 632.5,269.5 632.5,258.5C 640.352,258.175 648.018,258.508 655.5,259.5 Z"/></g>
<g><path style="opacity:1" fill="#888266" d="M 779.5,290.5 C 771.981,290.825 764.648,290.492 757.5,289.5C 757.167,289.5 756.833,289.5 756.5,289.5C 756.5,279.5 756.5,269.5 756.5,259.5C 764.167,259.5 771.833,259.5 779.5,259.5C 779.5,269.833 779.5,280.167 779.5,290.5 Z"/></g>
<g><path style="opacity:1" fill="#6f918c" d="M 711.5,259.5 C 718.833,259.5 726.167,259.5 733.5,259.5C 733.5,269.833 733.5,280.167 733.5,290.5C 726.167,290.5 718.833,290.5 711.5,290.5C 711.5,280.167 711.5,269.833 711.5,259.5 Z"/></g>
<g><path style="opacity:1" fill="#44a4bf" d="M 712.5,260.5 C 719.167,260.5 725.833,260.5 732.5,260.5C 732.5,270.167 732.5,279.833 732.5,289.5C 725.833,289.5 719.167,289.5 712.5,289.5C 712.5,279.833 712.5,270.167 712.5,260.5 Z"/></g>
<g><path style="opacity:1" fill="#46a4bf" d="M 757.5,289.5 C 757.5,279.833 757.5,270.167 757.5,260.5C 764.5,260.5 771.5,260.5 778.5,260.5C 778.5,270.167 778.5,279.833 778.5,289.5C 771.5,289.5 764.5,289.5 757.5,289.5 Z"/></g>
<g><path style="opacity:1" fill="#fefae4" d="M 444.5,253.5 C 446.833,253.5 449.167,253.5 451.5,253.5C 452.166,263.486 452.499,273.486 452.5,283.5C 451.732,282.737 451.232,281.737 451,280.5C 450.797,290.368 450.297,300.201 449.5,310C 449.613,311.28 450.28,312.113 451.5,312.5C 452.498,304.193 452.831,295.86 452.5,287.5C 453.615,296.317 454.282,305.317 454.5,314.5C 451.833,314.5 449.167,314.5 446.5,314.5C 447.148,312.914 447.648,311.247 448,309.5C 448.35,291.131 449.184,272.798 450.5,254.5C 448.265,254.795 446.265,254.461 444.5,253.5 Z"/></g>
<g><path style="opacity:1" fill="#d1381c" d="M 914.5,280.5 C 914.125,290.832 913.792,301.165 913.5,311.5C 913.5,312.5 913.5,313.5 913.5,314.5C 916.829,314.215 919.829,314.882 922.5,316.5C 919.482,316.335 916.482,316.502 913.5,317C 912.495,318.751 911.828,318.751 911.5,317C 912.299,306.534 912.799,296.034 913,285.5C 913.198,283.618 913.698,281.952 914.5,280.5 Z"/></g>
<g><path style="opacity:1" fill="#f3d82d" d="M 62.5,285.5 C 62.5,290.833 62.5,296.167 62.5,301.5C 55.498,298.491 54.1647,293.825 58.5,287.5C 59.5237,286.147 60.857,285.48 62.5,285.5 Z"/></g>
<g><path style="opacity:1" fill="#f8fbfe" d="M 452.5,283.5 C 452.5,284.833 452.5,286.167 452.5,287.5C 452.831,295.86 452.498,304.193 451.5,312.5C 450.28,312.113 449.613,311.28 449.5,310C 450.297,300.201 450.797,290.368 451,280.5C 451.232,281.737 451.732,282.737 452.5,283.5 Z"/></g>
<g><path style="opacity:1" fill="#ef9139" d="M 697.5,253.5 C 697.833,253.5 698.167,253.5 698.5,253.5C 700.087,271.794 700.754,290.127 700.5,308.5C 699.303,290.332 698.303,271.999 697.5,253.5 Z"/></g>
<g><path style="opacity:1" fill="#af7233" d="M 756.5,289.5 C 756.833,289.5 757.167,289.5 757.5,289.5C 764.648,290.492 771.981,290.825 779.5,290.5C 775.849,291.165 772.015,291.499 768,291.5C 763.771,291.49 759.938,290.823 756.5,289.5 Z"/></g>
<g><path style="opacity:1" fill="#169b31" d="M 588.5,259.5 C 588.5,269.833 588.5,280.167 588.5,290.5C 595.354,290.824 602.021,290.491 608.5,289.5C 609.494,280.014 609.827,270.348 609.5,260.5C 609.5,260.167 609.5,259.833 609.5,259.5C 611.477,270.116 612.144,281.116 611.5,292.5C 603.444,292.802 595.444,292.469 587.5,291.5C 587.167,286.167 586.833,280.833 586.5,275.5C 586.505,269.789 587.172,264.456 588.5,259.5 Z"/></g>
<g><path style="opacity:1" fill="#3da892" d="M 588.5,259.5 C 595.5,259.5 602.5,259.5 609.5,259.5C 609.5,259.833 609.5,260.167 609.5,260.5C 602.833,260.5 596.167,260.5 589.5,260.5C 589.334,269.839 589.5,279.173 590,288.5C 596.076,289.476 602.242,289.81 608.5,289.5C 602.021,290.491 595.354,290.824 588.5,290.5C 588.5,280.167 588.5,269.833 588.5,259.5 Z"/></g>
<g><path style="opacity:1" fill="#42a5bf" d="M 609.5,260.5 C 609.827,270.348 609.494,280.014 608.5,289.5C 602.242,289.81 596.076,289.476 590,288.5C 589.5,279.173 589.334,269.839 589.5,260.5C 596.167,260.5 602.833,260.5 609.5,260.5 Z"/></g>
<g><path style="opacity:1" fill="#f6baae" d="M 821.5,279.5 C 821.833,279.5 822.167,279.5 822.5,279.5C 822.5,279.833 822.5,280.167 822.5,280.5C 823,292.161 823.333,303.827 823.5,315.5C 820.833,315.5 818.167,315.5 815.5,315.5C 817.607,314.532 819.941,314.198 822.5,314.5C 822.204,302.832 821.87,291.165 821.5,279.5 Z"/></g>
<g><path style="opacity:1" fill="#fedbd3" d="M 916.5,253.5 C 916.991,273.064 915.991,292.398 913.5,311.5C 913.792,301.165 914.125,290.832 914.5,280.5C 914.5,279.833 914.5,279.167 914.5,278.5C 915.167,270.167 915.833,261.833 916.5,253.5 Z"/></g>
<g><path style="opacity:1" fill="#c6f6c1" d="M 575.5,290.5 C 576.404,291.209 576.737,292.209 576.5,293.5C 576.419,299.023 576.752,304.523 577.5,310C 577.431,311.986 576.765,313.486 575.5,314.5C 575.5,306.5 575.5,298.5 575.5,290.5 Z"/></g>
<g><path style="opacity:1" fill="#f6f1d5" d="M 546.5,271.5 C 546.333,285.504 546.5,299.504 547,313.5C 547.249,312.376 547.749,311.376 548.5,310.5C 549.665,311.491 550.832,312.491 552,313.5C 552.945,313.095 553.612,312.428 554,311.5C 556.543,312.876 556.709,314.043 554.5,315C 555.623,316.044 556.956,316.71 558.5,317C 556.808,318.401 556.141,320.234 556.5,322.5C 559.713,322.19 562.713,322.523 565.5,323.5C 561.833,323.5 558.167,323.5 554.5,323.5C 555.513,315.975 552.179,312.975 544.5,314.5C 544.5,310.833 544.5,307.167 544.5,303.5C 544.948,292.668 545.615,282.001 546.5,271.5 Z"/></g>
<g><path style="opacity:1" fill="#155b3b" d="M 65.5,312.5 C 86.7877,313.478 108.121,313.811 129.5,313.5C 129.5,313.833 129.5,314.167 129.5,314.5C 108.5,314.5 87.5,314.5 66.5,314.5C 66.1667,313.833 65.8333,313.167 65.5,312.5 Z"/></g>
<g><path style="opacity:1" fill="#fddcd0" d="M 300.5,263.5 C 300.389,280.172 300.055,296.839 299.5,313.5C 306.998,312.001 310.332,315.001 309.5,322.5C 309.167,322.5 308.833,322.5 308.5,322.5C 308.784,320.585 308.451,318.919 307.5,317.5C 307.53,316.503 307.03,315.836 306,315.5C 303.566,314.678 301.066,314.344 298.5,314.5C 298.5,310.833 298.5,307.167 298.5,303.5C 298.5,298.167 298.5,292.833 298.5,287.5C 299.167,279.5 299.833,271.5 300.5,263.5 Z"/></g>
<g><path style="opacity:1" fill="#c5513d" d="M 207.5,307.5 C 208.473,309.948 208.806,312.615 208.5,315.5C 205.5,315.5 202.5,315.5 199.5,315.5C 201.948,314.527 204.615,314.194 207.5,314.5C 207.5,312.167 207.5,309.833 207.5,307.5 Z"/></g>
<g><path style="opacity:1" fill="#1d9d19" d="M 669.5,266.5 C 668.02,282.462 667.353,298.462 667.5,314.5C 670.607,314.351 673.607,314.851 676.5,316C 677.435,318.381 677.768,320.881 677.5,323.5C 677.5,325.833 677.5,328.167 677.5,330.5C 677.784,332.415 677.451,334.081 676.5,335.5C 676.5,329.5 676.5,323.5 676.5,317.5C 640.863,316.353 605.196,316.186 569.5,317C 569,317.5 568.5,318 568,318.5C 567.501,324.157 567.334,329.824 567.5,335.5C 566.549,334.081 566.216,332.415 566.5,330.5C 566.5,328.167 566.5,325.833 566.5,323.5C 565.782,316.884 568.782,313.884 575.5,314.5C 576.765,313.486 577.431,311.986 577.5,310C 576.752,304.523 576.419,299.023 576.5,293.5C 578.039,299.937 578.706,306.604 578.5,313.5C 607.475,314.468 636.475,314.801 665.5,314.5C 666.213,299.181 666.713,283.848 667,268.5C 667.417,267.244 668.25,266.577 669.5,266.5 Z"/></g>
<g><path style="opacity:1" fill="#e96603" d="M 700.5,314.5 C 730.5,314.5 760.5,314.5 790.5,314.5C 792.607,315.468 794.941,315.802 797.5,315.5C 797.5,315.833 797.5,316.167 797.5,316.5C 762.167,316.5 726.833,316.5 691.5,316.5C 694.39,315.755 697.39,315.088 700.5,314.5 Z"/></g>
<g><path style="opacity:1" fill="#010300" d="M 66.5,314.5 C 87.5,314.5 108.5,314.5 129.5,314.5C 147.5,314.5 165.5,314.5 183.5,314.5C 183.5,316.167 183.5,317.833 183.5,319.5C 176.833,319.5 170.167,319.5 163.5,319.5C 159.167,319.5 154.833,319.5 150.5,319.5C 141.167,319.5 131.833,319.5 122.5,319.5C 118.833,319.5 115.167,319.5 111.5,319.5C 96.163,319.667 80.8297,319.5 65.5,319C 64.6634,317.989 64.33,316.822 64.5,315.5C 65.1667,315.167 65.8333,314.833 66.5,314.5 Z"/></g>
<g><path style="opacity:1" fill="#cf533e" d="M 298.5,303.5 C 298.5,307.167 298.5,310.833 298.5,314.5C 301.066,314.344 303.566,314.678 306,315.5C 307.03,315.836 307.53,316.503 307.5,317.5C 304.321,316.207 300.988,315.54 297.5,315.5C 297.183,311.298 297.517,307.298 298.5,303.5 Z"/></g>
<g><path style="opacity:1" fill="#edb71e" d="M 544.5,303.5 C 544.5,307.167 544.5,310.833 544.5,314.5C 552.179,312.975 555.513,315.975 554.5,323.5C 554.5,325.833 554.5,328.167 554.5,330.5C 554.923,332.781 554.256,334.448 552.5,335.5C 552.81,329.242 552.476,323.076 551.5,317C 521.928,316.172 492.428,316.338 463,317.5C 460.617,316.234 457.95,315.568 455,315.5C 452.5,315.833 450,316.167 447.5,316.5C 444.942,318.12 444.942,319.62 447.5,321C 446.5,321.333 445.5,321.667 444.5,322C 445.169,326.496 446.002,330.996 447,335.5C 450.466,336.717 453.966,336.717 457.5,335.5C 457.5,336.167 457.5,336.833 457.5,337.5C 457.167,337.5 456.833,337.5 456.5,337.5C 452.774,337.823 449.107,337.489 445.5,336.5C 443.896,334.821 443.229,332.821 443.5,330.5C 443.5,327.833 443.5,325.167 443.5,322.5C 443.016,319.212 444.016,316.545 446.5,314.5C 449.167,314.5 451.833,314.5 454.5,314.5C 484.167,314.5 513.833,314.5 543.5,314.5C 543.185,310.629 543.518,306.962 544.5,303.5 Z"/></g>
<g><path style="opacity:1" fill="#cb2d18" d="M 822.5,280.5 C 824.068,292.297 824.735,304.297 824.5,316.5C 821.223,316.216 818.057,316.549 815,317.5C 814.501,323.491 814.334,329.491 814.5,335.5C 813.549,334.081 813.216,332.415 813.5,330.5C 813.5,328.167 813.5,325.833 813.5,323.5C 813.5,321.833 813.5,320.167 813.5,318.5C 813.427,316.973 814.094,315.973 815.5,315.5C 818.167,315.5 820.833,315.5 823.5,315.5C 823.333,303.827 823,292.161 822.5,280.5 Z"/></g>
<g><path style="opacity:1" fill="#fbc106" d="M 552.5,335.5 C 552.389,336.117 552.056,336.617 551.5,337C 548.183,337.498 544.85,337.665 541.5,337.5C 541.141,332.143 538.475,328.477 533.5,326.5C 532.791,325.596 531.791,325.263 530.5,325.5C 527.696,324.362 524.696,324.195 521.5,325C 519.676,325.66 518.343,326.827 517.5,328.5C 514.695,329.979 513.028,332.312 512.5,335.5C 503.918,336.47 495.251,336.803 486.5,336.5C 482.499,325.048 474.833,321.714 463.5,326.5C 459.916,328.422 457.916,331.422 457.5,335.5C 453.966,336.717 450.466,336.717 447,335.5C 446.002,330.996 445.169,326.496 444.5,322C 445.5,321.667 446.5,321.333 447.5,321C 444.942,319.62 444.942,318.12 447.5,316.5C 450,316.167 452.5,315.833 455,315.5C 457.95,315.568 460.617,316.234 463,317.5C 492.428,316.338 521.928,316.172 551.5,317C 552.476,323.076 552.81,329.242 552.5,335.5 Z"/></g>
<g><path style="opacity:1" fill="#04ae04" d="M 676.5,335.5 C 674.028,335.942 671.528,336.275 669,336.5C 666.879,336.302 665.046,335.636 663.5,334.5C 663.047,332.435 662.047,330.768 660.5,329.5C 659.415,327.413 657.749,326.08 655.5,325.5C 647.458,323.997 641.124,326.33 636.5,332.5C 634.952,332.821 634.285,333.821 634.5,335.5C 626.472,335.831 618.472,335.498 610.5,334.5C 609.995,333.081 608.995,332.415 607.5,332.5C 602.336,326.259 595.669,324.092 587.5,326C 584.572,328.09 582.239,330.59 580.5,333.5C 576.404,335.213 572.07,335.879 567.5,335.5C 567.334,329.824 567.501,324.157 568,318.5C 568.5,318 569,317.5 569.5,317C 605.196,316.186 640.863,316.353 676.5,317.5C 676.5,323.5 676.5,329.5 676.5,335.5 Z"/></g>
<g><path style="opacity:1" fill="#fa7c06" d="M 691.5,316.5 C 726.833,316.5 762.167,316.5 797.5,316.5C 798.222,316.918 798.722,317.584 799,318.5C 799.499,324.157 799.666,329.824 799.5,335.5C 799.082,336.222 798.416,336.722 797.5,337C 794.183,337.498 790.85,337.665 787.5,337.5C 787.539,334.19 786.206,331.524 783.5,329.5C 781.757,327.962 779.757,326.962 777.5,326.5C 777.389,325.883 777.056,325.383 776.5,325C 772.449,324.482 768.449,324.816 764.5,326C 763.748,326.671 763.414,327.504 763.5,328.5C 759.847,330.472 757.847,333.472 757.5,337.5C 749.167,337.5 740.833,337.5 732.5,337.5C 731.772,335.488 730.938,333.488 730,331.5C 727.809,330.167 725.976,328.5 724.5,326.5C 719.737,324.13 714.737,323.963 709.5,326C 707.536,327.451 706.203,329.284 705.5,331.5C 704.015,333.249 703.015,335.249 702.5,337.5C 698.217,338.011 694.217,337.344 690.5,335.5C 689.548,333.955 689.215,332.288 689.5,330.5C 689.5,328.167 689.5,325.833 689.5,323.5C 689.171,320.772 689.837,318.438 691.5,316.5 Z"/></g>
<g><path style="opacity:1" fill="#e72003" d="M 914.5,278.5 C 914.5,279.167 914.5,279.833 914.5,280.5C 913.698,281.952 913.198,283.618 913,285.5C 912.799,296.034 912.299,306.534 911.5,317C 911.828,318.751 912.495,318.751 913.5,317C 916.482,316.502 919.482,316.335 922.5,316.5C 923.338,316.842 923.672,317.508 923.5,318.5C 923.829,324.206 923.495,329.872 922.5,335.5C 921.817,335.863 921.15,336.196 920.5,336.5C 916.25,337.081 912.584,336.081 909.5,333.5C 908.203,330.203 905.87,327.87 902.5,326.5C 897.869,325.338 893.202,325.172 888.5,326C 887.619,326.708 886.953,327.542 886.5,328.5C 884.367,330.091 882.701,332.091 881.5,334.5C 873.101,336.425 864.434,337.092 855.5,336.5C 852.019,327.227 845.353,323.727 835.5,326C 830.204,328.071 826.871,331.904 825.5,337.5C 821.351,338.08 817.684,337.414 814.5,335.5C 814.334,329.491 814.501,323.491 815,317.5C 818.057,316.549 821.223,316.216 824.5,316.5C 824.735,304.297 824.068,292.297 822.5,280.5C 822.5,280.167 822.5,279.833 822.5,279.5C 822.5,270.833 822.5,262.167 822.5,253.5C 853.012,253.519 883.345,253.519 913.5,253.5C 914.498,261.807 914.831,270.14 914.5,278.5 Z"/></g>
<g><path style="opacity:1" fill="#906163" d="M 835.5,259.5 C 835.5,259.833 835.5,260.167 835.5,260.5C 835.173,270.348 835.506,280.014 836.5,289.5C 842.979,290.491 849.646,290.824 856.5,290.5C 849.432,291.827 842.265,291.827 835,290.5C 834.175,279.992 834.341,269.658 835.5,259.5 Z"/></g>
<g><path style="opacity:1" fill="#807a7e" d="M 835.5,260.5 C 835.5,260.167 835.5,259.833 835.5,259.5C 842.833,259.5 850.167,259.5 857.5,259.5C 857.828,270.014 857.494,280.347 856.5,290.5C 849.646,290.824 842.979,290.491 836.5,289.5C 842.833,289.5 849.167,289.5 855.5,289.5C 855.5,279.833 855.5,270.167 855.5,260.5C 848.833,260.5 842.167,260.5 835.5,260.5 Z"/></g>
<g><path style="opacity:1" fill="#7f6265" d="M 879.5,259.5 C 887.167,259.5 894.833,259.5 902.5,259.5C 902.666,269.839 902.5,280.172 902,290.5C 894.587,291.481 887.087,291.814 879.5,291.5C 879.5,280.833 879.5,270.167 879.5,259.5 Z"/></g>
<g><path style="opacity:1" fill="#44a5bf" d="M 835.5,260.5 C 842.167,260.5 848.833,260.5 855.5,260.5C 855.5,270.167 855.5,279.833 855.5,289.5C 849.167,289.5 842.833,289.5 836.5,289.5C 835.506,280.014 835.173,270.348 835.5,260.5 Z"/></g>
<g><path style="opacity:1" fill="#46a4bf" d="M 880.5,260.5 C 887.5,260.5 894.5,260.5 901.5,260.5C 901.5,270.167 901.5,279.833 901.5,289.5C 894.5,289.5 887.5,289.5 880.5,289.5C 880.5,279.833 880.5,270.167 880.5,260.5 Z"/></g>
<g><path style="opacity:1" fill="#30261c" d="M 122.5,319.5 C 131.833,319.5 141.167,319.5 150.5,319.5C 146.728,321.83 143.728,324.997 141.5,329C 140.678,331.434 140.344,333.934 140.5,336.5C 138.901,336.232 137.568,336.566 136.5,337.5C 135.5,337.5 134.5,337.5 133.5,337.5C 132.571,334.325 131.738,330.991 131,327.5C 128.599,324.262 125.765,321.595 122.5,319.5 Z"/></g>
<g><path style="opacity:1" fill="#32291e" d="M 163.5,319.5 C 170.167,319.5 176.833,319.5 183.5,319.5C 183.5,320.5 183.5,321.5 183.5,322.5C 188.167,322.5 192.833,322.5 197.5,322.5C 197.5,325.167 197.5,327.833 197.5,330.5C 192.833,330.5 188.167,330.5 183.5,330.5C 183.5,332.833 183.5,335.167 183.5,337.5C 180.833,337.5 178.167,337.5 175.5,337.5C 174.446,333.836 173.279,330.169 172,326.5C 169.847,323.166 167.014,320.832 163.5,319.5 Z"/></g>
<g><path style="opacity:1" fill="#1188b5" d="M 431.5,322.5 C 431.5,325.167 431.5,327.833 431.5,330.5C 431.739,332.467 431.406,334.301 430.5,336C 426.605,337.266 422.605,337.766 418.5,337.5C 417.424,334.129 416.424,330.796 415.5,327.5C 409.142,324.166 402.476,323.666 395.5,326C 391.477,328.837 389.477,332.67 389.5,337.5C 380.833,337.5 372.167,337.5 363.5,337.5C 359.459,325.818 351.459,322.152 339.5,326.5C 336.374,329.539 334.374,333.206 333.5,337.5C 330.15,337.665 326.817,337.498 323.5,337C 321.752,334.987 320.418,332.82 319.5,330.5C 320.833,327.833 320.833,325.167 319.5,322.5C 320.243,315.437 324.243,312.77 331.5,314.5C 331.374,305.491 331.041,296.491 330.5,287.5C 333.761,286.629 334.761,284.795 333.5,282C 334.123,278.519 334.623,275.019 335,271.5C 335.667,277.167 335.667,282.833 335,288.5C 334.667,288.167 334.333,287.833 334,287.5C 333.212,293.22 333.379,298.886 334.5,304.5C 361.5,305.833 388.5,305.833 415.5,304.5C 416.523,288.203 416.523,271.87 415.5,255.5C 388.44,256.153 361.607,255.486 335,253.5C 334.5,254 334,254.5 333.5,255C 334.626,258.744 334.793,262.577 334,266.5C 332.199,271.702 331.033,277.036 330.5,282.5C 329.697,272.99 329.03,263.323 328.5,253.5C 325.428,253.817 322.428,253.484 319.5,252.5C 318.201,248.036 318.201,243.702 319.5,239.5C 321.417,241.745 323.75,242.078 326.5,240.5C 328.223,243.94 328.89,247.606 328.5,251.5C 329.5,251.5 330.5,251.5 331.5,251.5C 330.979,247.519 330.646,243.519 330.5,239.5C 331.5,239.5 332.5,239.5 333.5,239.5C 333.26,242.579 333.593,245.579 334.5,248.5C 362.492,249.5 390.492,249.833 418.5,249.5C 418.5,247.833 418.5,246.167 418.5,244.5C 420.199,244.66 421.866,244.494 423.5,244C 424.774,242.779 426.274,241.946 428,241.5C 429.869,242.369 430.369,243.535 429.5,245C 431.004,246.491 431.837,248.324 432,250.5C 432.499,246.514 432.666,242.514 432.5,238.5C 394.833,238.5 357.167,238.5 319.5,238.5C 337.988,237.167 356.821,236.5 376,236.5C 394.833,236.667 413.667,236.833 432.5,237C 433,237.5 433.5,238 434,238.5C 434.667,242.833 434.667,247.167 434,251.5C 433.5,252 433,252.5 432.5,253C 429.518,253.498 426.518,253.665 423.5,253.5C 422.667,273.828 422,294.161 421.5,314.5C 428.544,312.984 431.877,315.651 431.5,322.5 Z"/></g>
<g><path style="opacity:1" fill="#c6aba0" d="M 813.5,318.5 C 813.5,320.167 813.5,321.833 813.5,323.5C 809.5,323.5 805.5,323.5 801.5,323.5C 804.962,322.518 808.629,322.185 812.5,322.5C 812.232,320.901 812.566,319.568 813.5,318.5 Z"/></g>
<g><path style="opacity:1" fill="#ad2f16" d="M 221.5,324.5 C 223.966,323.366 226.633,323.199 229.5,324C 231.881,324.223 233.547,325.39 234.5,327.5C 230.55,325.121 226.216,324.121 221.5,324.5 Z"/></g>
<g><path style="opacity:1" fill="#8e3420" d="M 287.5,325.5 C 283.5,325.5 279.5,325.5 275.5,325.5C 276.624,324.191 278.124,323.525 280,323.5C 282.708,323.867 285.208,324.534 287.5,325.5 Z"/></g>
<g><path style="opacity:1" fill="#d7863e" d="M 797.5,316.5 C 797.5,316.167 797.5,315.833 797.5,315.5C 798.75,315.577 799.583,316.244 800,317.5C 800.495,319.473 800.662,321.473 800.5,323.5C 800.198,326.059 800.532,328.393 801.5,330.5C 800.976,332.306 800.309,333.972 799.5,335.5C 799.666,329.824 799.499,324.157 799,318.5C 798.722,317.584 798.222,316.918 797.5,316.5 Z"/></g>
<g><path style="opacity:1" fill="#734728" d="M 724.5,326.5 C 720.486,326.334 716.486,326.501 712.5,327C 709.767,327.904 707.433,329.404 705.5,331.5C 706.203,329.284 707.536,327.451 709.5,326C 714.737,323.963 719.737,324.13 724.5,326.5 Z"/></g>
<g><path style="opacity:1" fill="#724827" d="M 777.5,326.5 C 772.533,325.962 767.866,326.629 763.5,328.5C 763.414,327.504 763.748,326.671 764.5,326C 768.449,324.816 772.449,324.482 776.5,325C 777.056,325.383 777.389,325.883 777.5,326.5 Z"/></g>
<g><path style="opacity:1" fill="#382716" d="M 800.5,323.5 C 800.833,323.5 801.167,323.5 801.5,323.5C 805.5,323.5 809.5,323.5 813.5,323.5C 813.5,325.833 813.5,328.167 813.5,330.5C 809.5,330.5 805.5,330.5 801.5,330.5C 800.532,328.393 800.198,326.059 800.5,323.5 Z"/></g>
<g><path style="opacity:1" fill="#30271c" d="M 64.5,315.5 C 64.33,316.822 64.6634,317.989 65.5,319C 80.8297,319.5 96.163,319.667 111.5,319.5C 107.677,320.967 104.344,323.3 101.5,326.5C 100.385,330.263 99.3854,333.93 98.5,337.5C 96.1667,337.5 93.8333,337.5 91.5,337.5C 91.4142,336.504 91.7476,335.671 92.5,335C 85.7608,323.547 76.7608,321.547 65.5,329C 64.1367,330.945 63.3034,333.112 63,335.5C 62.0053,336.066 61.172,336.733 60.5,337.5C 57.8333,337.5 55.1667,337.5 52.5,337.5C 52.6019,328.059 56.6019,320.726 64.5,315.5 Z"/></g>
<g><path style="opacity:1" fill="#645120" d="M 530.5,325.5 C 528.659,326.673 526.826,326.673 525,325.5C 522.323,326.222 519.823,327.222 517.5,328.5C 518.343,326.827 519.676,325.66 521.5,325C 524.696,324.195 527.696,324.362 530.5,325.5 Z"/></g>
<g><path style="opacity:1" fill="#297822" d="M 655.5,325.5 C 657.749,326.08 659.415,327.413 660.5,329.5C 658.251,328.92 656.585,327.587 655.5,325.5 Z"/></g>
<g><path style="opacity:1" fill="#3a2c21" d="M 308.5,322.5 C 308.833,322.5 309.167,322.5 309.5,322.5C 312.833,322.5 316.167,322.5 319.5,322.5C 320.833,325.167 320.833,327.833 319.5,330.5C 315.833,330.5 312.167,330.5 308.5,330.5C 308.5,327.833 308.5,325.167 308.5,322.5 Z"/></g>
<g><path style="opacity:1" fill="#362e23" d="M 431.5,322.5 C 435.5,322.5 439.5,322.5 443.5,322.5C 443.5,325.167 443.5,327.833 443.5,330.5C 439.5,330.5 435.5,330.5 431.5,330.5C 431.5,327.833 431.5,325.167 431.5,322.5 Z"/></g>
<g><path style="opacity:1" fill="#4b423c" d="M 221.5,324.5 C 226.216,324.121 230.55,325.121 234.5,327.5C 238.061,329.965 240.061,333.298 240.5,337.5C 240.753,345.573 237.087,350.906 229.5,353.5C 226.833,354.833 224.167,354.833 221.5,353.5C 213.917,350.908 210.25,345.575 210.5,337.5C 210.5,336.833 210.5,336.167 210.5,335.5C 212.5,330.167 216.167,326.5 221.5,324.5 Z"/></g>
<g><path style="opacity:1" fill="#4e4335" d="M 486.5,336.5 C 486.5,336.833 486.5,337.167 486.5,337.5C 485.442,336.4 484.608,335.066 484,333.5C 482.199,335.138 482.032,336.972 483.5,339C 482.192,341.337 481.192,343.837 480.5,346.5C 479.522,341.82 479.355,337.153 480,332.5C 479.5,333.667 478.667,334.5 477.5,335C 478.116,336.4 478.449,337.9 478.5,339.5C 478.415,341.333 477.748,342.666 476.5,343.5C 478.594,336.155 475.927,332.988 468.5,334C 464.552,337.578 464.552,341.078 468.5,344.5C 466.569,345.259 465.069,346.593 464,348.5C 463.173,347.338 462.34,346.171 461.5,345C 465.224,340.381 465.058,335.881 461,331.5C 461.579,333.342 462.079,335.342 462.5,337.5C 462.167,338.5 461.833,339.5 461.5,340.5C 460.757,339.092 459.923,337.759 459,336.5C 458.617,337.056 458.117,337.389 457.5,337.5C 457.5,336.833 457.5,336.167 457.5,335.5C 457.916,331.422 459.916,328.422 463.5,326.5C 474.833,321.714 482.499,325.048 486.5,336.5 Z"/></g>
<g><path style="opacity:1" fill="#2e2719" d="M 554.5,323.5 C 558.167,323.5 561.833,323.5 565.5,323.5C 565.833,323.5 566.167,323.5 566.5,323.5C 566.5,325.833 566.5,328.167 566.5,330.5C 562.5,330.5 558.5,330.5 554.5,330.5C 554.5,328.167 554.5,325.833 554.5,323.5 Z"/></g>
<g><path style="opacity:1" fill="#31261c" d="M 677.5,323.5 C 681.5,323.5 685.5,323.5 689.5,323.5C 689.5,325.833 689.5,328.167 689.5,330.5C 685.5,330.5 681.5,330.5 677.5,330.5C 677.5,328.167 677.5,325.833 677.5,323.5 Z"/></g>
<g><path style="opacity:1" fill="#49423c" d="M 91.5,337.5 C 92.2737,345.968 88.6071,351.301 80.5,353.5C 78.1667,354.833 75.8333,354.833 73.5,353.5C 69.66,352.748 66.66,350.748 64.5,347.5C 63.5906,343.771 62.2573,340.437 60.5,337.5C 61.172,336.733 62.0053,336.066 63,335.5C 63.3034,333.112 64.1367,330.945 65.5,329C 76.7608,321.547 85.7608,323.547 92.5,335C 91.7476,335.671 91.4142,336.504 91.5,337.5 Z"/></g>
<g><path style="opacity:1" fill="#f9f9f7" d="M 197.5,330.5 C 197.087,333.32 198.087,335.32 200.5,336.5C 203.625,337.479 206.958,337.813 210.5,337.5C 210.25,345.575 213.917,350.908 221.5,353.5C 201.5,354.833 181.5,354.833 161.5,353.5C 169.415,350.924 174.082,345.59 175.5,337.5C 178.167,337.5 180.833,337.5 183.5,337.5C 183.5,335.167 183.5,332.833 183.5,330.5C 188.167,330.5 192.833,330.5 197.5,330.5 Z"/></g>
<g><path style="opacity:1" fill="#f9f9f7" d="M 308.5,330.5 C 312.167,330.5 315.833,330.5 319.5,330.5C 320.418,332.82 321.752,334.987 323.5,337C 326.817,337.498 330.15,337.665 333.5,337.5C 333.346,346.005 337.346,351.339 345.5,353.5C 325.167,354.833 304.833,354.833 284.5,353.5C 292.114,350.885 295.781,345.552 295.5,337.5C 298.85,337.665 302.183,337.498 305.5,337C 307.451,335.266 308.451,333.099 308.5,330.5 Z"/></g>
<g><path style="opacity:1" fill="#504533" d="M 533.5,326.5 C 538.475,328.477 541.141,332.143 541.5,337.5C 539.94,337.519 538.44,337.852 537,338.5C 535.189,337.576 535.355,336.743 537.5,336C 536.056,335.219 534.723,335.386 533.5,336.5C 533.97,338.774 534.97,340.774 536.5,342.5C 534.872,342.579 533.205,342.912 531.5,343.5C 533.762,335.562 530.929,332.562 523,334.5C 521.337,337.456 521.171,340.456 522.5,343.5C 521.252,342.666 520.585,341.333 520.5,339.5C 522.276,336.103 521.61,333.27 518.5,331C 519.997,328.793 521.997,328.126 524.5,329C 523.672,329.915 522.672,330.581 521.5,331C 522.108,331.87 522.941,332.37 524,332.5C 525.667,331.167 527.333,329.833 529,328.5C 530.44,329.148 531.94,329.481 533.5,329.5C 533.5,328.5 533.5,327.5 533.5,326.5 Z"/></g>
<g><path style="opacity:1" fill="#f9f9f5" d="M 554.5,330.5 C 558.5,330.5 562.5,330.5 566.5,330.5C 566.216,332.415 566.549,334.081 567.5,335.5C 567.611,336.117 567.944,336.617 568.5,337C 572.152,337.499 575.818,337.665 579.5,337.5C 579.302,345.615 582.969,350.948 590.5,353.5C 570.5,354.833 550.5,354.833 530.5,353.5C 538.586,351.358 542.252,346.025 541.5,337.5C 544.85,337.665 548.183,337.498 551.5,337C 552.056,336.617 552.389,336.117 552.5,335.5C 554.256,334.448 554.923,332.781 554.5,330.5 Z"/></g>
<g><path style="opacity:1" fill="#f9f8f6" d="M 801.5,330.5 C 805.5,330.5 809.5,330.5 813.5,330.5C 813.216,332.415 813.549,334.081 814.5,335.5C 817.684,337.414 821.351,338.08 825.5,337.5C 825.508,345.513 829.175,351.179 836.5,354.5C 816.66,354.83 796.993,354.497 777.5,353.5C 784.673,350.732 788.006,345.399 787.5,337.5C 790.85,337.665 794.183,337.498 797.5,337C 798.416,336.722 799.082,336.222 799.5,335.5C 800.309,333.972 800.976,332.306 801.5,330.5 Z"/></g>
<g><path style="opacity:1" fill="#583d39" d="M 909.5,333.5 C 909.232,335.099 909.566,336.432 910.5,337.5C 910.5,339.167 910.5,340.833 910.5,342.5C 910.672,343.492 910.338,344.158 909.5,344.5C 907.926,341.507 907.259,338.507 907.5,335.5C 906.185,338.373 905.185,341.373 904.5,344.5C 904.047,341.482 903.713,338.482 903.5,335.5C 902.833,338.833 902.167,342.167 901.5,345.5C 896.903,347.05 892.57,346.55 888.5,344C 889.117,341.723 889.784,339.556 890.5,337.5C 890.929,345.774 894.429,347.441 901,342.5C 901.796,339.961 901.629,337.628 900.5,335.5C 901.159,332.545 901.492,329.545 901.5,326.5C 896.241,326.016 891.241,326.683 886.5,328.5C 886.953,327.542 887.619,326.708 888.5,326C 893.202,325.172 897.869,325.338 902.5,326.5C 905.87,327.87 908.203,330.203 909.5,333.5 Z"/></g>
<g><path style="opacity:1" fill="#010000" d="M 73.5,332.5 C 82.049,332.521 84.7157,336.354 81.5,344C 73.9005,347.05 70.0672,344.55 70,336.5C 71.3756,335.295 72.5423,333.962 73.5,332.5 Z"/></g>
<g><path style="opacity:1" fill="#f9f9f6" d="M 677.5,330.5 C 681.5,330.5 685.5,330.5 689.5,330.5C 689.215,332.288 689.548,333.955 690.5,335.5C 694.217,337.344 698.217,338.011 702.5,337.5C 702.321,345.162 705.654,350.495 712.5,353.5C 693.167,354.833 673.833,354.833 654.5,353.5C 661.351,350.481 664.685,345.148 664.5,337.5C 668.182,337.665 671.848,337.499 675.5,337C 676.056,336.617 676.389,336.117 676.5,335.5C 677.451,334.081 677.784,332.415 677.5,330.5 Z"/></g>
<g><path style="opacity:1" fill="#a6311b" d="M 229.5,335.5 C 226.833,334.167 224.167,334.167 221.5,335.5C 222.492,333.974 223.992,333.307 226,333.5C 227.681,333.608 228.848,334.275 229.5,335.5 Z"/></g>
<g><path style="opacity:1" fill="#f9f9f7" d="M 431.5,330.5 C 435.5,330.5 439.5,330.5 443.5,330.5C 443.229,332.821 443.896,334.821 445.5,336.5C 449.107,337.489 452.774,337.823 456.5,337.5C 456.671,345.889 460.671,351.222 468.5,353.5C 448.167,354.833 427.833,354.833 407.5,353.5C 415.092,351.014 418.758,345.68 418.5,337.5C 422.605,337.766 426.605,337.266 430.5,336C 431.406,334.301 431.739,332.467 431.5,330.5 Z"/></g>
<g><path style="opacity:1" fill="#13880d" d="M 607.5,332.5 C 608.995,332.415 609.995,333.081 610.5,334.5C 618.472,335.498 626.472,335.831 634.5,335.5C 634.285,333.821 634.952,332.821 636.5,332.5C 635.833,334.167 635.167,335.833 634.5,337.5C 626.167,337.5 617.833,337.5 609.5,337.5C 607.744,336.448 607.077,334.781 607.5,332.5 Z"/></g>
<g><path style="opacity:1" fill="#ab402b" d="M 210.5,335.5 C 210.5,336.167 210.5,336.833 210.5,337.5C 206.958,337.813 203.625,337.479 200.5,336.5C 203.939,336.747 207.272,336.414 210.5,335.5 Z"/></g>
<g><path style="opacity:1" fill="#49433f" d="M 363.5,337.5 C 363.67,345.184 360.337,350.517 353.5,353.5C 350.734,354.232 348.068,354.232 345.5,353.5C 337.346,351.339 333.346,346.005 333.5,337.5C 334.374,333.206 336.374,329.539 339.5,326.5C 351.459,322.152 359.459,325.818 363.5,337.5 Z"/></g>
<g><path style="opacity:1" fill="#d6aa3c" d="M 512.5,335.5 C 512.5,336.5 512.5,337.5 512.5,338.5C 503.918,337.53 495.251,337.197 486.5,337.5C 486.5,337.167 486.5,336.833 486.5,336.5C 495.251,336.803 503.918,336.47 512.5,335.5 Z"/></g>
<g><path style="opacity:1" fill="#1f851f" d="M 580.5,333.5 C 580.567,334.959 580.234,336.292 579.5,337.5C 575.818,337.665 572.152,337.499 568.5,337C 567.944,336.617 567.611,336.117 567.5,335.5C 572.07,335.879 576.404,335.213 580.5,333.5 Z"/></g>
<g><path style="opacity:1" fill="#257f21" d="M 663.5,334.5 C 665.046,335.636 666.879,336.302 669,336.5C 671.528,336.275 674.028,335.942 676.5,335.5C 676.389,336.117 676.056,336.617 675.5,337C 671.848,337.499 668.182,337.665 664.5,337.5C 663.596,336.791 663.263,335.791 663.5,334.5 Z"/></g>
<g><path style="opacity:1" fill="#a52513" d="M 881.5,334.5 C 881.5,335.5 881.5,336.5 881.5,337.5C 872.833,337.5 864.167,337.5 855.5,337.5C 855.5,337.167 855.5,336.833 855.5,336.5C 864.434,337.092 873.101,336.425 881.5,334.5 Z"/></g>
<g><path style="opacity:1" fill="#992815" d="M 909.5,333.5 C 912.584,336.081 916.25,337.081 920.5,336.5C 917.375,337.479 914.042,337.813 910.5,337.5C 909.566,336.432 909.232,335.099 909.5,333.5 Z"/></g>
<g><path style="opacity:1" fill="#eac2b9" d="M 855.5,337.5 C 864.167,337.5 872.833,337.5 881.5,337.5C 881.5,339.167 881.5,340.833 881.5,342.5C 880.566,341.432 880.232,340.099 880.5,338.5C 872.5,338.5 864.5,338.5 856.5,338.5C 856.737,339.791 856.404,340.791 855.5,341.5C 855.5,340.167 855.5,338.833 855.5,337.5 Z"/></g>
<g><path style="opacity:1" fill="#f5cabd" d="M 923.5,318.5 C 924.653,324.653 924.82,330.986 924,337.5C 919.934,338.464 915.767,338.797 911.5,338.5C 911.768,340.099 911.434,341.432 910.5,342.5C 910.5,340.833 910.5,339.167 910.5,337.5C 914.042,337.813 917.375,337.479 920.5,336.5C 921.15,336.196 921.817,335.863 922.5,335.5C 923.495,329.872 923.829,324.206 923.5,318.5 Z"/></g>
<g><path style="opacity:1" fill="#f5f3f1" d="M 133.5,337.5 C 134.5,337.5 135.5,337.5 136.5,337.5C 137.833,337.5 139.167,337.5 140.5,337.5C 141.15,345.818 145.484,351.151 153.5,353.5C 142.167,354.833 130.833,354.833 119.5,353.5C 128.081,351.586 132.747,346.253 133.5,337.5 Z"/></g>
<g><path style="opacity:1" fill="#f9f8f5" d="M 486.5,337.5 C 495.251,337.197 503.918,337.53 512.5,338.5C 512.034,346.579 515.701,351.579 523.5,353.5C 507.5,354.833 491.5,354.833 475.5,353.5C 483.106,350.976 486.772,345.643 486.5,337.5 Z"/></g>
<g><path style="opacity:1" fill="#f4bf17" d="M 531.5,343.5 C 528.5,344.833 525.5,344.833 522.5,343.5C 521.171,340.456 521.337,337.456 523,334.5C 530.929,332.562 533.762,335.562 531.5,343.5 Z"/></g>
<g><path style="opacity:1" fill="#f7f9f5" d="M 609.5,337.5 C 617.833,337.5 626.167,337.5 634.5,337.5C 634.34,345.21 637.674,350.544 644.5,353.5C 629.167,354.833 613.833,354.833 598.5,353.5C 605.996,350.975 609.663,345.642 609.5,337.5 Z"/></g>
<g><path style="opacity:1" fill="#fbfaf7" d="M 732.5,337.5 C 740.833,337.5 749.167,337.5 757.5,337.5C 757.286,345.603 760.953,350.936 768.5,353.5C 753.167,354.833 737.833,354.833 722.5,353.5C 729.477,350.509 732.81,345.176 732.5,337.5 Z"/></g>
<g><path style="opacity:1" fill="#fbfbf9" d="M 881.5,342.5 C 882.734,348.067 886.067,351.734 891.5,353.5C 876.167,354.833 860.833,354.833 845.5,353.5C 851.346,351.649 854.68,347.649 855.5,341.5C 856.404,340.791 856.737,339.791 856.5,338.5C 864.5,338.5 872.5,338.5 880.5,338.5C 880.232,340.099 880.566,341.432 881.5,342.5 Z"/></g>
<g><path style="opacity:1" fill="#f5f3f0" d="M 91.5,337.5 C 93.8333,337.5 96.1667,337.5 98.5,337.5C 99.1954,345.856 103.529,351.189 111.5,353.5C 101.167,354.833 90.8333,354.833 80.5,353.5C 88.6071,351.301 92.2737,345.968 91.5,337.5 Z"/></g>
<g><path style="opacity:1" fill="#f8f8f6" d="M 240.5,337.5 C 248.833,337.5 257.167,337.5 265.5,337.5C 265.215,345.548 268.881,350.882 276.5,353.5C 260.833,354.833 245.167,354.833 229.5,353.5C 237.087,350.906 240.753,345.573 240.5,337.5 Z"/></g>
<g><path style="opacity:1" fill="#f8f8f6" d="M 363.5,337.5 C 372.167,337.5 380.833,337.5 389.5,337.5C 388.792,345.428 392.126,350.761 399.5,353.5C 384.167,354.833 368.833,354.833 353.5,353.5C 360.337,350.517 363.67,345.184 363.5,337.5 Z"/></g>
<g><path style="opacity:1" fill="#4b423e" d="M 530.5,325.5 C 531.791,325.263 532.791,325.596 533.5,326.5C 533.5,327.5 533.5,328.5 533.5,329.5C 531.94,329.481 530.44,329.148 529,328.5C 527.333,329.833 525.667,331.167 524,332.5C 522.941,332.37 522.108,331.87 521.5,331C 522.672,330.581 523.672,329.915 524.5,329C 521.997,328.126 519.997,328.793 518.5,331C 521.61,333.27 522.276,336.103 520.5,339.5C 520.585,341.333 521.252,342.666 522.5,343.5C 523.492,345.026 524.992,345.693 527,345.5C 529.008,345.693 530.508,345.026 531.5,343.5C 533.205,342.912 534.872,342.579 536.5,342.5C 534.97,340.774 533.97,338.774 533.5,336.5C 534.723,335.386 536.056,335.219 537.5,336C 535.355,336.743 535.189,337.576 537,338.5C 538.44,337.852 539.94,337.519 541.5,337.5C 542.252,346.025 538.586,351.358 530.5,353.5C 528.167,354.833 525.833,354.833 523.5,353.5C 515.701,351.579 512.034,346.579 512.5,338.5C 512.5,337.5 512.5,336.5 512.5,335.5C 513.028,332.312 514.695,329.979 517.5,328.5C 519.823,327.222 522.323,326.222 525,325.5C 526.826,326.673 528.659,326.673 530.5,325.5 Z"/></g>
<g><path style="opacity:1" fill="#d6280c" d="M 229.5,335.5 C 232.712,340.368 231.378,343.701 225.5,345.5C 221.408,344.991 219.408,342.658 219.5,338.5C 219.64,336.97 220.307,335.97 221.5,335.5C 224.167,334.167 226.833,334.167 229.5,335.5 Z"/></g>
<g><path style="opacity:1" fill="#1285b2" d="M 346.5,333.5 C 354.91,334.288 356.577,337.955 351.5,344.5C 344.35,346.019 341.35,343.019 342.5,335.5C 344.38,335.771 345.713,335.104 346.5,333.5 Z"/></g>
<g><path style="opacity:1" fill="#87671a" d="M 522.5,343.5 C 525.5,344.833 528.5,344.833 531.5,343.5C 530.508,345.026 529.008,345.693 527,345.5C 524.992,345.693 523.492,345.026 522.5,343.5 Z"/></g>
<g><path style="opacity:1" fill="#49423d" d="M 111.5,319.5 C 115.167,319.5 118.833,319.5 122.5,319.5C 125.765,321.595 128.599,324.262 131,327.5C 131.738,330.991 132.571,334.325 133.5,337.5C 132.747,346.253 128.081,351.586 119.5,353.5C 116.833,354.833 114.167,354.833 111.5,353.5C 103.529,351.189 99.1954,345.856 98.5,337.5C 99.3854,333.93 100.385,330.263 101.5,326.5C 104.344,323.3 107.677,320.967 111.5,319.5 Z"/></g>
<g><path style="opacity:1" fill="#010000" d="M 113.5,327.5 C 122.365,327.847 125.532,332.181 123,340.5C 117.186,346.205 112.186,345.538 108,338.5C 107.176,333.482 109.009,329.815 113.5,327.5 Z"/></g>
<g><path style="opacity:1" fill="#49413c" d="M 150.5,319.5 C 154.833,319.5 159.167,319.5 163.5,319.5C 167.014,320.832 169.847,323.166 172,326.5C 173.279,330.169 174.446,333.836 175.5,337.5C 174.082,345.59 169.415,350.924 161.5,353.5C 158.833,354.833 156.167,354.833 153.5,353.5C 145.484,351.151 141.15,345.818 140.5,337.5C 139.167,337.5 137.833,337.5 136.5,337.5C 137.568,336.566 138.901,336.232 140.5,336.5C 140.344,333.934 140.678,331.434 141.5,329C 143.728,324.997 146.728,321.83 150.5,319.5 Z"/></g>
<g><path style="opacity:1" fill="#010001" d="M 154.5,328.5 C 162.568,327.931 166.068,331.598 165,339.5C 162.774,343.861 159.274,345.361 154.5,344C 147.876,338.885 147.876,333.718 154.5,328.5 Z"/></g>
<g><path style="opacity:1" fill="#49433c" d="M 607.5,332.5 C 607.077,334.781 607.744,336.448 609.5,337.5C 609.663,345.642 605.996,350.975 598.5,353.5C 595.833,354.833 593.167,354.833 590.5,353.5C 582.969,350.948 579.302,345.615 579.5,337.5C 580.234,336.292 580.567,334.959 580.5,333.5C 582.239,330.59 584.572,328.09 587.5,326C 595.669,324.092 602.336,326.259 607.5,332.5 Z"/></g>
<g><path style="opacity:1" fill="#306b22" d="M 599.5,335.5 C 602.346,343.649 599.679,346.649 591.5,344.5C 598.333,345.33 601,342.33 599.5,335.5 Z"/></g>
<g><path style="opacity:1" fill="#08ae07" d="M 598.5,335.5 C 598.833,335.5 599.167,335.5 599.5,335.5C 601,342.33 598.333,345.33 591.5,344.5C 587.925,337.382 590.258,334.382 598.5,335.5 Z"/></g>
<g><path style="opacity:1" fill="#2d7d20" d="M 598.5,335.5 C 590.258,334.382 587.925,337.382 591.5,344.5C 590.504,344.586 589.671,344.252 589,343.5C 587.254,337.638 589.254,334.305 595,333.5C 596.681,333.608 597.848,334.275 598.5,335.5 Z"/></g>
<g><path style="opacity:1" fill="#4a423a" d="M 724.5,326.5 C 725.976,328.5 727.809,330.167 730,331.5C 730.938,333.488 731.772,335.488 732.5,337.5C 732.81,345.176 729.477,350.509 722.5,353.5C 719.133,354.747 715.799,354.747 712.5,353.5C 705.654,350.495 702.321,345.162 702.5,337.5C 703.015,335.249 704.015,333.249 705.5,331.5C 707.433,329.404 709.767,327.904 712.5,327C 716.486,326.501 720.486,326.334 724.5,326.5 Z"/></g>
<g><path style="opacity:1" fill="#e78014" d="M 720.5,334.5 C 721.209,335.404 722.209,335.737 723.5,335.5C 725.023,341.632 722.69,344.965 716.5,345.5C 712.683,345.347 711.016,343.347 711.5,339.5C 711.585,337.667 712.252,336.334 713.5,335.5C 715.717,334.631 718.05,334.298 720.5,334.5 Z"/></g>
<g><path style="opacity:1" fill="#91591e" d="M 720.5,334.5 C 718.05,334.298 715.717,334.631 713.5,335.5C 714.152,334.275 715.319,333.608 717,333.5C 718.385,333.514 719.551,333.848 720.5,334.5 Z"/></g>
<g><path style="opacity:1" fill="#4c433c" d="M 777.5,326.5 C 779.757,326.962 781.757,327.962 783.5,329.5C 786.206,331.524 787.539,334.19 787.5,337.5C 788.006,345.399 784.673,350.732 777.5,353.5C 774.5,354.833 771.5,354.833 768.5,353.5C 760.953,350.936 757.286,345.603 757.5,337.5C 757.847,333.472 759.847,330.472 763.5,328.5C 767.866,326.629 772.533,325.962 777.5,326.5 Z"/></g>
<g><path style="opacity:1" fill="#ed8313" d="M 770.5,334.5 C 776.989,333.632 779.489,336.299 778,342.5C 775.388,345.576 772.221,346.243 768.5,344.5C 767.516,341.572 767.183,338.572 767.5,335.5C 768.791,335.737 769.791,335.404 770.5,334.5 Z"/></g>
<g><path style="opacity:1" fill="#4b423c" d="M 855.5,336.5 C 855.5,336.833 855.5,337.167 855.5,337.5C 855.5,338.833 855.5,340.167 855.5,341.5C 854.68,347.649 851.346,351.649 845.5,353.5C 842.609,354.403 839.609,354.736 836.5,354.5C 829.175,351.179 825.508,345.513 825.5,337.5C 826.871,331.904 830.204,328.071 835.5,326C 845.353,323.727 852.019,327.227 855.5,336.5 Z"/></g>
<g><path style="opacity:1" fill="#e42305" d="M 844.5,335.5 C 845.693,335.97 846.36,336.97 846.5,338.5C 846.62,341.622 845.287,343.622 842.5,344.5C 836.439,344.192 835.106,341.525 838.5,336.5C 840.396,335.534 842.396,335.201 844.5,335.5 Z"/></g>
<g><path style="opacity:1" fill="#bc2d16" d="M 844.5,335.5 C 842.396,335.201 840.396,335.534 838.5,336.5C 835.106,341.525 836.439,344.192 842.5,344.5C 837.819,346.512 835.486,344.846 835.5,339.5C 835.706,335.727 837.706,333.727 841.5,333.5C 843.03,333.64 844.03,334.307 844.5,335.5 Z"/></g>
<g><path style="opacity:1" fill="#4d423d" d="M 275.5,325.5 C 279.5,325.5 283.5,325.5 287.5,325.5C 292.116,328.13 294.782,332.13 295.5,337.5C 295.781,345.552 292.114,350.885 284.5,353.5C 281.871,354.714 279.204,354.714 276.5,353.5C 268.881,350.882 265.215,345.548 265.5,337.5C 266.684,334.428 268.017,331.428 269.5,328.5C 271.243,326.962 273.243,325.962 275.5,325.5 Z"/></g>
<g><path style="opacity:1" fill="#a0321c" d="M 276.5,335.5 C 275.036,342.705 277.703,345.372 284.5,343.5C 278.875,347.174 275.542,345.507 274.5,338.5C 274.64,336.97 275.307,335.97 276.5,335.5 Z"/></g>
<g><path style="opacity:1" fill="#e52206" d="M 284.5,343.5 C 277.703,345.372 275.036,342.705 276.5,335.5C 279.07,332.934 281.737,332.934 284.5,335.5C 285.8,338.309 285.8,340.976 284.5,343.5 Z"/></g>
<g><path style="opacity:1" fill="#49443e" d="M 418.5,337.5 C 418.758,345.68 415.092,351.014 407.5,353.5C 404.833,354.833 402.167,354.833 399.5,353.5C 392.126,350.761 388.792,345.428 389.5,337.5C 389.477,332.67 391.477,328.837 395.5,326C 402.476,323.666 409.142,324.166 415.5,327.5C 416.424,330.796 417.424,334.129 418.5,337.5 Z"/></g>
<g><path style="opacity:1" fill="#1083b0" d="M 401.5,333.5 C 407.662,332.827 410.162,335.494 409,341.5C 406.352,345.959 403.186,346.459 399.5,343C 398.044,339.331 398.711,336.164 401.5,333.5 Z"/></g>
<g><path style="opacity:1" fill="#4a433d" d="M 900.5,335.5 C 896.408,332.515 893.074,333.181 890.5,337.5C 889.784,339.556 889.117,341.723 888.5,344C 892.57,346.55 896.903,347.05 901.5,345.5C 902.167,342.167 902.833,338.833 903.5,335.5C 903.713,338.482 904.047,341.482 904.5,344.5C 905.185,341.373 906.185,338.373 907.5,335.5C 907.259,338.507 907.926,341.507 909.5,344.5C 908.202,349.131 905.202,352.131 900.5,353.5C 897.465,354.734 894.465,354.734 891.5,353.5C 886.067,351.734 882.734,348.067 881.5,342.5C 881.5,340.833 881.5,339.167 881.5,337.5C 881.5,336.5 881.5,335.5 881.5,334.5C 882.701,332.091 884.367,330.091 886.5,328.5C 891.241,326.683 896.241,326.016 901.5,326.5C 901.492,329.545 901.159,332.545 900.5,335.5 Z"/></g>
<g><path style="opacity:1" fill="#dd250b" d="M 900.5,335.5 C 901.629,337.628 901.796,339.961 901,342.5C 894.429,347.441 890.929,345.774 890.5,337.5C 893.074,333.181 896.408,332.515 900.5,335.5 Z"/></g>
<g><path style="opacity:1" fill="#49433c" d="M 655.5,325.5 C 656.585,327.587 658.251,328.92 660.5,329.5C 662.047,330.768 663.047,332.435 663.5,334.5C 663.263,335.791 663.596,336.791 664.5,337.5C 664.685,345.148 661.351,350.481 654.5,353.5C 651.167,354.833 647.833,354.833 644.5,353.5C 637.674,350.544 634.34,345.21 634.5,337.5C 635.167,335.833 635.833,334.167 636.5,332.5C 641.124,326.33 647.458,323.997 655.5,325.5 Z"/></g>
<g><path style="opacity:1" fill="#13a410" d="M 647.5,333.5 C 650.308,333.693 652.975,334.36 655.5,335.5C 656.775,343.898 653.442,346.898 645.5,344.5C 643.759,340.342 644.426,336.676 647.5,333.5 Z"/></g>
<g><path style="opacity:1" fill="#375d26" d="M 647.5,333.5 C 644.426,336.676 643.759,340.342 645.5,344.5C 644.504,344.586 643.671,344.252 643,343.5C 641.317,338.543 642.817,335.21 647.5,333.5 Z"/></g>
<g><path style="opacity:1" fill="#4e4540" d="M 468.5,344.5 C 471.237,344.599 473.904,344.265 476.5,343.5C 477.748,342.666 478.415,341.333 478.5,339.5C 478.449,337.9 478.116,336.4 477.5,335C 478.667,334.5 479.5,333.667 480,332.5C 479.355,337.153 479.522,341.82 480.5,346.5C 481.192,343.837 482.192,341.337 483.5,339C 482.032,336.972 482.199,335.138 484,333.5C 484.608,335.066 485.442,336.4 486.5,337.5C 486.772,345.643 483.106,350.976 475.5,353.5C 473.126,354.686 470.792,354.686 468.5,353.5C 460.671,351.222 456.671,345.889 456.5,337.5C 456.833,337.5 457.167,337.5 457.5,337.5C 458.117,337.389 458.617,337.056 459,336.5C 459.923,337.759 460.757,339.092 461.5,340.5C 461.833,339.5 462.167,338.5 462.5,337.5C 462.079,335.342 461.579,333.342 461,331.5C 465.058,335.881 465.224,340.381 461.5,345C 462.34,346.171 463.173,347.338 464,348.5C 465.069,346.593 466.569,345.259 468.5,344.5 Z"/></g>
<g><path style="opacity:1" fill="#f0bd16" d="M 476.5,343.5 C 473.904,344.265 471.237,344.599 468.5,344.5C 464.552,341.078 464.552,337.578 468.5,334C 475.927,332.988 478.594,336.155 476.5,343.5 Z"/></g>
<g><path style="opacity:1" fill="#a58167" d="M 920.5,358.5 C 920.5,359.5 920.5,360.5 920.5,361.5C 914.5,361.5 908.5,361.5 902.5,361.5C 902.5,360.167 902.5,358.833 902.5,357.5C 895.5,357.5 888.5,357.5 881.5,357.5C 881.5,358.833 881.5,360.167 881.5,361.5C 875.5,361.5 869.5,361.5 863.5,361.5C 863.5,360.167 863.5,358.833 863.5,357.5C 873.812,356.168 884.478,355.501 895.5,355.5C 906.167,355.833 916.833,356.167 927.5,356.5C 925.031,357.168 922.698,357.835 920.5,358.5 Z"/></g>
<g><path style="opacity:1" fill="#a98970" d="M 73.5,353.5 C 75.8333,354.833 78.1667,354.833 80.5,353.5C 90.8333,354.833 101.167,354.833 111.5,353.5C 114.167,354.833 116.833,354.833 119.5,353.5C 130.833,354.833 142.167,354.833 153.5,353.5C 156.167,354.833 158.833,354.833 161.5,353.5C 181.5,354.833 201.5,354.833 221.5,353.5C 224.167,354.833 226.833,354.833 229.5,353.5C 245.167,354.833 260.833,354.833 276.5,353.5C 279.204,354.714 281.871,354.714 284.5,353.5C 304.833,354.833 325.167,354.833 345.5,353.5C 348.068,354.232 350.734,354.232 353.5,353.5C 368.833,354.833 384.167,354.833 399.5,353.5C 402.167,354.833 404.833,354.833 407.5,353.5C 427.833,354.833 448.167,354.833 468.5,353.5C 470.792,354.686 473.126,354.686 475.5,353.5C 491.5,354.833 507.5,354.833 523.5,353.5C 525.833,354.833 528.167,354.833 530.5,353.5C 550.5,354.833 570.5,354.833 590.5,353.5C 593.167,354.833 595.833,354.833 598.5,353.5C 613.833,354.833 629.167,354.833 644.5,353.5C 647.833,354.833 651.167,354.833 654.5,353.5C 673.833,354.833 693.167,354.833 712.5,353.5C 715.799,354.747 719.133,354.747 722.5,353.5C 737.833,354.833 753.167,354.833 768.5,353.5C 771.5,354.833 774.5,354.833 777.5,353.5C 796.993,354.497 816.66,354.83 836.5,354.5C 839.609,354.736 842.609,354.403 845.5,353.5C 860.833,354.833 876.167,354.833 891.5,353.5C 894.465,354.734 897.465,354.734 900.5,353.5C 909.652,354.494 918.985,354.827 928.5,354.5C 928.5,355.833 928.5,357.167 928.5,358.5C 925.833,358.5 923.167,358.5 920.5,358.5C 922.698,357.835 925.031,357.168 927.5,356.5C 916.833,356.167 906.167,355.833 895.5,355.5C 884.478,355.501 873.812,356.168 863.5,357.5C 856.745,357.207 850.078,357.54 843.5,358.5C 838.025,357.511 832.358,357.178 826.5,357.5C 826.737,358.791 826.404,359.791 825.5,360.5C 825.5,359.5 825.5,358.5 825.5,357.5C 818.833,357.5 812.167,357.5 805.5,357.5C 799.441,357.254 793.441,357.587 787.5,358.5C 780.833,358.5 774.167,358.5 767.5,358.5C 761.901,357.664 755.901,357.33 749.5,357.5C 742.167,357.5 734.833,357.5 727.5,357.5C 722.489,357.334 717.489,357.501 712.5,358C 710.273,358.704 709.94,359.871 711.5,361.5C 709.824,360.817 709.157,359.483 709.5,357.5C 702.5,357.5 695.5,357.5 688.5,357.5C 688.5,358.833 688.5,360.167 688.5,361.5C 682.5,361.5 676.5,361.5 670.5,361.5C 670.5,360.167 670.5,358.833 670.5,357.5C 663.167,357.5 655.833,357.5 648.5,357.5C 642.44,357.542 636.44,357.542 630.5,357.5C 623.5,357.5 616.5,357.5 609.5,357.5C 609.5,358.833 609.5,360.167 609.5,361.5C 603.5,361.5 597.5,361.5 591.5,361.5C 591.5,360.167 591.5,358.833 591.5,357.5C 584.167,357.5 576.833,357.5 569.5,357.5C 569.5,358.833 569.5,360.167 569.5,361.5C 564.5,361.5 559.5,361.5 554.5,361.5C 554.5,360.167 554.5,358.833 554.5,357.5C 553.5,357.5 552.5,357.5 551.5,357.5C 551.5,358.833 551.5,360.167 551.5,361.5C 545.167,361.5 538.833,361.5 532.5,361.5C 532.5,360.167 532.5,358.833 532.5,357.5C 526.167,357.5 519.833,357.5 513.5,357.5C 513.5,358.833 513.5,360.167 513.5,361.5C 507.491,361.666 501.491,361.499 495.5,361C 494.663,359.989 494.33,358.822 494.5,357.5C 487.833,357.5 481.167,357.5 474.5,357.5C 474.5,358.833 474.5,360.167 474.5,361.5C 468.5,361.5 462.5,361.5 456.5,361.5C 456.5,360.167 456.5,358.833 456.5,357.5C 449.833,357.5 443.167,357.5 436.5,357.5C 436.5,358.833 436.5,360.167 436.5,361.5C 430.5,361.5 424.5,361.5 418.5,361.5C 418.5,360.167 418.5,358.833 418.5,357.5C 411.833,357.5 405.167,357.5 398.5,357.5C 398.5,358.833 398.5,360.167 398.5,361.5C 392.5,361.5 386.5,361.5 380.5,361.5C 380.5,360.167 380.5,358.833 380.5,357.5C 373.167,357.5 365.833,357.5 358.5,357.5C 358.5,358.833 358.5,360.167 358.5,361.5C 352.5,361.5 346.5,361.5 340.5,361.5C 340.5,360.167 340.5,358.833 340.5,357.5C 333.5,357.5 326.5,357.5 319.5,357.5C 319.5,358.833 319.5,360.167 319.5,361.5C 313.167,361.5 306.833,361.5 300.5,361.5C 300.5,360.167 300.5,358.833 300.5,357.5C 293.5,357.5 286.5,357.5 279.5,357.5C 279.5,358.833 279.5,360.167 279.5,361.5C 273.5,361.5 267.5,361.5 261.5,361.5C 261.5,360.167 261.5,358.833 261.5,357.5C 254.5,357.5 247.5,357.5 240.5,357.5C 240.5,358.833 240.5,360.167 240.5,361.5C 234.491,361.666 228.491,361.499 222.5,361C 221.663,359.989 221.33,358.822 221.5,357.5C 214.5,357.5 207.5,357.5 200.5,357.5C 200.5,358.833 200.5,360.167 200.5,361.5C 194.5,361.5 188.5,361.5 182.5,361.5C 182.5,360.167 182.5,358.833 182.5,357.5C 175.5,357.5 168.5,357.5 161.5,357.5C 161.5,358.833 161.5,360.167 161.5,361.5C 155.167,361.5 148.833,361.5 142.5,361.5C 142.5,360.167 142.5,358.833 142.5,357.5C 135.5,357.5 128.5,357.5 121.5,357.5C 121.5,358.833 121.5,360.167 121.5,361.5C 115.5,361.5 109.5,361.5 103.5,361.5C 103.5,360.167 103.5,358.833 103.5,357.5C 96.1667,357.5 88.8333,357.5 81.5,357.5C 81.5,358.833 81.5,360.167 81.5,361.5C 75.5,361.5 69.5,361.5 63.5,361.5C 63.5,360.167 63.5,358.833 63.5,357.5C 60.8333,357.5 58.1667,357.5 55.5,357.5C 55.5,356.5 55.5,355.5 55.5,354.5C 61.69,354.823 67.69,354.49 73.5,353.5 Z"/></g>
<g><path style="opacity:1" fill="#976b4e" d="M 630.5,357.5 C 636.44,357.542 642.44,357.542 648.5,357.5C 648.5,358.833 648.5,360.167 648.5,361.5C 642.5,361.5 636.5,361.5 630.5,361.5C 630.5,360.167 630.5,358.833 630.5,357.5 Z"/></g>
<g><path style="opacity:1" fill="#986e55" d="M 727.5,357.5 C 727.5,358.833 727.5,360.167 727.5,361.5C 722.167,361.5 716.833,361.5 711.5,361.5C 709.94,359.871 710.273,358.704 712.5,358C 717.489,357.501 722.489,357.334 727.5,357.5 Z"/></g>
<g><path style="opacity:1" fill="#987054" d="M 749.5,357.5 C 755.901,357.33 761.901,357.664 767.5,358.5C 767.5,359.5 767.5,360.5 767.5,361.5C 761.5,361.5 755.5,361.5 749.5,361.5C 749.5,360.167 749.5,358.833 749.5,357.5 Z"/></g>
<g><path style="opacity:1" fill="#977155" d="M 805.5,357.5 C 805.5,358.833 805.5,360.167 805.5,361.5C 799.5,361.5 793.5,361.5 787.5,361.5C 787.5,360.5 787.5,359.5 787.5,358.5C 793.441,357.587 799.441,357.254 805.5,357.5 Z"/></g>
<g><path style="opacity:1" fill="#976e54" d="M 843.5,358.5 C 843.5,359.5 843.5,360.5 843.5,361.5C 837.31,361.823 831.31,361.49 825.5,360.5C 826.404,359.791 826.737,358.791 826.5,357.5C 832.358,357.178 838.025,357.511 843.5,358.5 Z"/></g>
</svg>
